<?xml version="1.0" encoding="utf-8"?>
<!-- Generator: Adobe Illustrator 27.5.0, SVG Export Plug-In . SVG Version: 6.00 Build 0)  -->
<svg version="1.1" xmlns="http://www.w3.org/2000/svg" xmlns:xlink="http://www.w3.org/1999/xlink" x="0px" y="0px"
	 viewBox="0 0 500 500" style="enable-background:new 0 0 500 500;" xml:space="preserve">
<g id="Background_Complete">
	<g>
		<rect y="382.398" style="fill:#EBEBEB;" width="500" height="0.25"/>
		<rect x="416.779" y="398.494" style="fill:#EBEBEB;" width="33.122" height="0.25"/>
		<rect x="322.527" y="401.208" style="fill:#EBEBEB;" width="8.693" height="0.25"/>
		<rect x="396.586" y="389.208" style="fill:#EBEBEB;" width="19.192" height="0.25"/>
		<rect x="52.459" y="390.888" style="fill:#EBEBEB;" width="43.193" height="0.25"/>
		<rect x="104.556" y="390.888" style="fill:#EBEBEB;" width="6.333" height="0.25"/>
		<rect x="131.471" y="395.111" style="fill:#EBEBEB;" width="93.676" height="0.25"/>
		<path style="fill:#EBEBEB;" d="M237.014,337.8H43.915c-3.147,0-5.708-2.561-5.708-5.708V60.66c0-3.147,2.561-5.708,5.708-5.708
			h193.099c3.146,0,5.707,2.561,5.707,5.708v271.432C242.721,335.239,240.16,337.8,237.014,337.8z M43.915,55.203
			c-3.01,0-5.458,2.448-5.458,5.458v271.432c0,3.01,2.448,5.458,5.458,5.458h193.099c3.009,0,5.457-2.448,5.457-5.458V60.66
			c0-3.009-2.448-5.458-5.457-5.458H43.915z"/>
		<path style="fill:#EBEBEB;" d="M453.31,337.8H260.212c-3.147,0-5.707-2.561-5.707-5.708V60.66c0-3.147,2.561-5.708,5.707-5.708
			H453.31c3.148,0,5.708,2.561,5.708,5.708v271.432C459.019,335.239,456.458,337.8,453.31,337.8z M260.212,55.203
			c-3.009,0-5.457,2.448-5.457,5.458v271.432c0,3.01,2.448,5.458,5.457,5.458H453.31c3.01,0,5.458-2.448,5.458-5.458V60.66
			c0-3.009-2.448-5.458-5.458-5.458H260.212z"/>
	</g>
	<g>
		<g>
			
				<rect x="270.983" y="290.09" transform="matrix(-1 -1.224647e-16 1.224647e-16 -1 617.7737 661.7739)" style="fill:#E6E6E6;" width="75.807" height="81.595"/>
			
				<rect x="259.409" y="284.019" transform="matrix(-1 -1.224647e-16 1.224647e-16 -1 528.3476 666.2913)" style="fill:#E6E6E6;" width="9.529" height="98.253"/>
			
				<rect x="328.512" y="296.513" transform="matrix(-1 -1.224647e-16 1.224647e-16 -1 663.2343 623.5175)" style="fill:#FAFAFA;" width="6.211" height="30.492"/>
			
				<rect x="302.758" y="296.513" transform="matrix(-1 -1.224647e-16 1.224647e-16 -1 611.7268 623.5175)" style="fill:#F5F5F5;" width="6.211" height="30.492"/>
			
				<rect x="322.3" y="298.656" transform="matrix(-1 -1.224647e-16 1.224647e-16 -1 650.8115 625.6604)" style="fill:#F5F5F5;" width="6.212" height="28.349"/>
			
				<rect x="308.969" y="298.656" transform="matrix(-1 -1.224647e-16 1.224647e-16 -1 624.1496 625.6604)" style="fill:#FAFAFA;" width="6.211" height="28.349"/>
			
				<rect x="315.181" y="296.513" transform="matrix(-1 -1.224647e-16 1.224647e-16 -1 634.3749 623.5175)" style="fill:#EBEBEB;" width="4.014" height="30.492"/>
			
				<rect x="319.194" y="298.656" transform="matrix(-1 -1.224647e-16 1.224647e-16 -1 641.4944 625.6604)" style="fill:#FAFAFA;" width="3.106" height="28.349"/>
			
				<rect x="296.546" y="296.513" transform="matrix(-1 -1.224647e-16 1.224647e-16 -1 599.3041 623.5175)" style="fill:#EBEBEB;" width="6.211" height="30.492"/>
			
				<rect x="290.335" y="298.656" transform="matrix(-1 -1.224647e-16 1.224647e-16 -1 586.8814 625.6604)" style="fill:#E6E6E6;" width="6.211" height="28.349"/>
			
				<rect x="277.004" y="298.656" transform="matrix(-1 -1.224647e-16 1.224647e-16 -1 560.2195 625.6604)" style="fill:#E6E6E6;" width="6.211" height="28.349"/>
			
				<rect x="283.215" y="296.513" transform="matrix(-1 -1.224647e-16 1.224647e-16 -1 570.4447 623.5175)" style="fill:#FAFAFA;" width="4.014" height="30.492"/>
			
				<rect x="287.229" y="298.656" transform="matrix(-1 -1.224647e-16 1.224647e-16 -1 577.5643 625.6604)" style="fill:#EBEBEB;" width="3.106" height="28.349"/>
			
				<rect x="273.898" y="297.235" transform="matrix(-1 -1.224647e-16 1.224647e-16 -1 550.9025 624.2398)" style="fill:#FAFAFA;" width="3.106" height="29.77"/>
			<rect x="273.898" y="337.381" style="fill:#FAFAFA;" width="6.211" height="30.492"/>
			<rect x="299.652" y="337.381" style="fill:#FAFAFA;" width="6.211" height="30.492"/>
			<rect x="280.11" y="339.523" style="fill:#F0F0F0;" width="6.211" height="28.349"/>
			<rect x="293.441" y="339.523" style="fill:#EBEBEB;" width="6.211" height="28.349"/>
			<rect x="289.427" y="337.381" style="fill:#FAFAFA;" width="4.014" height="30.492"/>
			<rect x="286.321" y="339.523" style="fill:#F5F5F5;" width="3.106" height="28.349"/>
			<rect x="305.863" y="337.381" style="fill:#EBEBEB;" width="6.211" height="30.492"/>
			<rect x="312.075" y="339.523" style="fill:#F5F5F5;" width="6.211" height="28.349"/>
			<rect x="325.406" y="339.523" style="fill:#E6E6E6;" width="6.211" height="28.349"/>
			<rect x="321.392" y="337.381" style="fill:#FAFAFA;" width="4.014" height="30.492"/>
			<rect x="334.723" y="337.381" style="fill:#FAFAFA;" width="4.014" height="30.492"/>
			<rect x="318.286" y="339.523" style="fill:#EBEBEB;" width="3.106" height="28.349"/>
			<rect x="331.617" y="338.103" style="fill:#F0F0F0;" width="3.106" height="29.77"/>
			<path style="fill:#F0F0F0;" d="M268.824,284.019v98.253h5.082v-5.506h75.284v-92.747h-75.284h-2.541H268.824z M273.906,332.12
				h70.491v35.752h-70.491V332.12z M273.906,292.913h70.491v34.125h-70.491V292.913z"/>
			<rect x="346.914" y="290.09" style="fill:#E6E6E6;" width="75.807" height="81.595"/>
			<rect x="410.277" y="375.769" style="fill:#E6E6E6;" width="9.529" height="6.503"/>
			<rect x="349.468" y="296.513" style="fill:#FAFAFA;" width="6.211" height="30.492"/>
			<rect x="375.221" y="296.513" style="fill:#F5F5F5;" width="6.211" height="30.492"/>
			<rect x="355.679" y="298.656" style="fill:#F5F5F5;" width="6.212" height="28.349"/>
			<rect x="369.01" y="298.656" style="fill:#FAFAFA;" width="6.211" height="28.349"/>
			<rect x="364.996" y="296.513" style="fill:#EBEBEB;" width="4.014" height="30.492"/>
			<rect x="361.891" y="298.656" style="fill:#FAFAFA;" width="3.106" height="28.349"/>
			<rect x="377.338" y="296.513" style="fill:#EBEBEB;" width="6.211" height="30.492"/>
			<rect x="383.549" y="298.656" style="fill:#E6E6E6;" width="6.211" height="28.349"/>
			<rect x="396.88" y="298.656" style="fill:#E6E6E6;" width="6.211" height="28.349"/>
			<rect x="392.866" y="296.513" style="fill:#FAFAFA;" width="4.014" height="30.492"/>
			<rect x="389.761" y="298.656" style="fill:#EBEBEB;" width="3.106" height="28.349"/>
			<rect x="403.092" y="297.235" style="fill:#F5F5F5;" width="3.106" height="29.77"/>
			
				<rect x="402.904" y="337.381" transform="matrix(-1 -1.224647e-16 1.224647e-16 -1 812.0184 705.2535)" style="fill:#FAFAFA;" width="6.211" height="30.492"/>
			
				<rect x="377.15" y="337.381" transform="matrix(-1 -1.224647e-16 1.224647e-16 -1 760.5111 705.2535)" style="fill:#FAFAFA;" width="6.211" height="30.492"/>
			
				<rect x="396.692" y="339.523" transform="matrix(-1 -1.224647e-16 1.224647e-16 -1 799.5957 707.3963)" style="fill:#F5F5F5;" width="6.211" height="28.349"/>
			
				<rect x="383.361" y="339.523" transform="matrix(-1 -1.224647e-16 1.224647e-16 -1 772.9338 707.3963)" style="fill:#EBEBEB;" width="6.211" height="28.349"/>
			
				<rect x="389.573" y="337.381" transform="matrix(-1 -1.224647e-16 1.224647e-16 -1 783.1591 705.2535)" style="fill:#FAFAFA;" width="4.014" height="30.492"/>
			
				<rect x="393.586" y="339.523" transform="matrix(-1 -1.224647e-16 1.224647e-16 -1 790.2787 707.3963)" style="fill:#F5F5F5;" width="3.106" height="28.349"/>
			
				<rect x="375.033" y="337.381" transform="matrix(-1 -1.224647e-16 1.224647e-16 -1 756.278 705.2535)" style="fill:#EBEBEB;" width="6.211" height="30.492"/>
			
				<rect x="368.822" y="339.523" transform="matrix(-1 -1.224647e-16 1.224647e-16 -1 743.8552 707.3963)" style="fill:#F5F5F5;" width="6.211" height="28.349"/>
			
				<rect x="355.491" y="339.523" transform="matrix(-1 -1.224647e-16 1.224647e-16 -1 717.1934 707.3963)" style="fill:#E6E6E6;" width="6.211" height="28.349"/>
			
				<rect x="361.702" y="337.381" transform="matrix(-1 -1.224647e-16 1.224647e-16 -1 727.4186 705.2535)" style="fill:#FAFAFA;" width="4.014" height="30.492"/>
			
				<rect x="349.19" y="337.381" transform="matrix(-1 -1.224647e-16 1.224647e-16 -1 702.3946 705.2535)" style="fill:#FAFAFA;" width="4.014" height="30.492"/>
			
				<rect x="365.716" y="339.523" transform="matrix(-1 -1.224647e-16 1.224647e-16 -1 734.5381 707.3963)" style="fill:#EBEBEB;" width="3.106" height="28.349"/>
			
				<rect x="352.385" y="338.103" transform="matrix(-1 -1.224647e-16 1.224647e-16 -1 707.8763 705.9757)" style="fill:#EBEBEB;" width="3.106" height="29.77"/>
			<path style="fill:#F0F0F0;" d="M422.339,284.019h-2.541h-75.284v92.747h75.284v5.506h5.082v-98.253H422.339z M419.798,367.873
				h-70.491V332.12h70.491V367.873z M419.798,327.038h-70.491v-34.125h70.491V327.038z"/>
		</g>
		<g>
			
				<rect x="272.615" y="93.022" transform="matrix(-1 -1.224647e-16 1.224647e-16 -1 688.3618 333.9403)" style="fill:#EBEBEB;" width="143.132" height="147.895"/>
			
				<rect x="267.615" y="93.022" transform="matrix(-1 -1.224647e-16 1.224647e-16 -1 678.3618 333.9403)" style="fill:#F0F0F0;" width="143.132" height="147.895"/>
			<rect x="271.408" y="96.528" style="fill:#E0E0E0;" width="135.729" height="140.953"/>
			<rect x="274.8" y="96.527" style="fill:#F5F5F5;" width="132.34" height="140.95"/>
			
				<rect x="339.6" y="96.528" transform="matrix(-1 -1.224647e-16 1.224647e-16 -1 681.8876 334.0093)" style="fill:#EBEBEB;" width="2.687" height="140.953"/>
			<polygon style="fill:#FFFFFF;" points="324.18,96.527 286.46,237.477 282.84,237.477 320.56,96.527 			"/>
			
				<rect x="338.448" y="94.354" transform="matrix(-1 -1.224647e-16 1.224647e-16 -1 679.2004 334.5364)" style="fill:#F0F0F0;" width="2.304" height="145.828"/>
			<polygon style="fill:#FFFFFF;" points="310.49,96.527 274.8,229.917 274.8,156.597 290.87,96.527 			"/>
			<polygon style="fill:#FFFFFF;" points="407.14,109.317 407.14,122.847 376.46,237.477 372.84,237.477 			"/>
			<polygon style="fill:#FFFFFF;" points="407.14,136.637 407.14,209.957 399.78,237.477 380.16,237.477 			"/>
		</g>
		<g>
			<circle style="fill:#E0E0E0;" cx="120.072" cy="121.982" r="20.273"/>
			<circle style="fill:#F0F0F0;" cx="120.072" cy="121.982" r="17.237"/>
			
				<polyline style="fill:#F0F0F0;stroke:#E0E0E0;stroke-width:2;stroke-linecap:round;stroke-linejoin:round;stroke-miterlimit:10;" points="
				119.259,133.807 119.259,121.757 111.274,126.276 			"/>
		</g>
		<g>
			<g>
				<path style="fill:#F5F5F5;" d="M202.721,282.029L202.721,282.029H82.579l0,0c0,4.411,3.472,8.032,7.878,8.231
					c12.911,0.582,32.773,2.625,39.072,9.769c11.741,13.316,10.604,60.095-3.46,70.929c-4.41,3.397-17.265,10.142-17.265,10.142
					h67.691c0,0-12.012-6.881-16.186-10.142c-13.984-10.923-14.391-57.674-2.595-70.929c6.052-6.801,24.669-8.998,37.16-9.691
					C199.28,290.094,202.721,286.442,202.721,282.029z"/>
				<path style="fill:#E6E6E6;" d="M97.462,290.696c12.203,0.978,26.828,3.39,32.068,9.333c1.551,1.759,2.87,4.114,3.972,6.88
					h20.178c1.131-2.769,2.473-5.125,4.035-6.88c5.26-5.91,20.006-8.342,31.977-9.333H97.462z"/>
			</g>
			<g>
				<polygon style="fill:#EBEBEB;" points="151.544,282.088 149.91,263.414 173.592,263.414 175.226,282.088 				"/>
				<polygon style="fill:#E0E0E0;" points="151.544,282.088 149.91,263.414 148.635,263.414 150.269,282.088 				"/>
				<polygon style="fill:#F0F0F0;" points="153.792,280.184 152.491,265.318 171.344,265.318 172.645,280.184 				"/>
				<polygon style="fill:#FAFAFA;" points="155.237,278.96 154.15,266.542 169.899,266.542 170.986,278.96 				"/>
			</g>
			<g>
				<g>
					<polygon style="fill:#E6E6E6;" points="143.862,282.029 120.072,282.029 122.712,251.86 146.501,251.86 					"/>
					<polygon style="fill:#E0E0E0;" points="143.862,282.029 144.998,282.029 147.637,251.86 146.501,251.86 					"/>
					<polygon style="fill:#F0F0F0;" points="141.706,278.953 122.767,278.953 124.868,254.936 143.807,254.936 					"/>
					<polygon style="fill:#FAFAFA;" points="140.32,276.976 124.499,276.976 126.254,256.913 142.075,256.913 					"/>
				</g>
				<path style="fill:#EBEBEB;" d="M132.329,265.94L132.329,265.94c1.075,1.075,2.817,1.075,3.892,0l0,0
					c1.075-1.075,1.075-2.817,0-3.892l0,0c-1.075-1.075-2.817-1.075-3.892,0l0,0C131.254,263.122,131.254,264.865,132.329,265.94z"
					/>
				<path style="fill:#F0F0F0;" d="M133.493,269.311L133.493,269.311c-0.787-0.787-2.063-0.787-2.85,0l0,0
					c-1.269,1.27-0.37,3.44,1.425,3.44l0,0C133.864,272.751,134.763,270.58,133.493,269.311z"/>
			</g>
		</g>
	</g>
</g>
<g id="Background_Simple" style="display:none;">
	<path style="display:inline;fill:#407BFF;" d="M252.721,72.538c121.136-3.269,168.012,60.015,164.178,139.194
		S339.888,388.22,247.114,388.22S77.006,286.126,83.629,194.761C90.253,103.396,164.772,74.912,252.721,72.538z"/>
	<path style="display:inline;opacity:0.9;fill:#FFFFFF;" d="M252.721,72.538c121.136-3.269,168.012,60.015,164.178,139.194
		S339.888,388.22,247.114,388.22S77.006,286.126,83.629,194.761C90.253,103.396,164.772,74.912,252.721,72.538z"/>
</g>
<g id="Shadow_1_">
	<ellipse id="_x3C_Path_x3E__359_" style="fill:#F5F5F5;" cx="250" cy="416.238" rx="193.889" ry="11.323"/>
</g>
<g id="Plant">
	<g>
		<path style="fill:#407BFF;" d="M91.595,391.544c0,0-4.953-10.806,0.706-21.459c5.659-10.653,7.299-13.162,3.692-15.345
			c-3.607-2.182-5.262,8.522-5.262,8.522s-3.041-7.364-0.53-15.071c2.511-7.707,4.085-20.259,0.656-21.606
			c-3.429-1.347-0.655,15.659-3.63,21.456c0,0-2.499-6.453-2.91-12.643c-0.411-6.19,0.231-16.075-2.477-18.61
			c-2.708-2.535-4.442-0.781-1.781,12.879c2.661,13.661,2.641,24.765,2.641,24.765s-5.877-17.92-9.822-18.442
			c-3.944-0.523-3.939,5.281-0.563,10.314c3.376,5.033,9.888,14.05,10.956,18.69c0,0-6.451-13.485-12.254-9.352
			c-5.803,4.133,5.051,12.278,9.889,15.222s8.197,21.393,8.197,21.393L91.595,391.544z"/>
		<path style="opacity:0.2;enable-background:new    ;" d="M91.595,391.544c0,0-4.953-10.806,0.706-21.459
			c5.659-10.653,7.299-13.162,3.692-15.345c-3.607-2.182-5.262,8.522-5.262,8.522s-3.041-7.364-0.53-15.071
			c2.511-7.707,4.085-20.259,0.656-21.606c-3.429-1.347-0.655,15.659-3.63,21.456c0,0-2.499-6.453-2.91-12.643
			c-0.411-6.19,0.231-16.075-2.477-18.61c-2.708-2.535-4.442-0.781-1.781,12.879c2.661,13.661,2.641,24.765,2.641,24.765
			s-5.877-17.92-9.822-18.442c-3.944-0.523-3.939,5.281-0.563,10.314c3.376,5.033,9.888,14.05,10.956,18.69
			c0,0-6.451-13.485-12.254-9.352c-5.803,4.133,5.051,12.278,9.889,15.222s8.197,21.393,8.197,21.393L91.595,391.544z"/>
		<path style="fill:#407BFF;" d="M87.685,395.976c0,0,4.823-10.879-0.963-21.447s-7.456-13.052-3.876-15.288
			c3.581-2.236,5.364,8.443,5.364,8.443s2.952-7.409,0.349-15.078c-2.603-7.669-4.328-20.197-0.915-21.594
			c3.412-1.398,0.842,15.648,3.887,21.4c0,0,2.421-6.49,2.758-12.686c0.337-6.196-0.424-16.07,2.253-18.645
			c2.677-2.576,4.433-0.848,1.936,12.852c-2.497,13.699-2.344,24.802-2.344,24.802s5.662-18.005,9.599-18.587
			c3.938-0.581,4.003,5.221,0.687,10.305c-3.316,5.083-9.718,14.197-10.73,18.852c0,0,6.289-13.58,12.141-9.534
			c5.852,4.046-4.903,12.353-9.705,15.368c-4.802,3.015-7.94,21.513-7.94,21.513L87.685,395.976z"/>
		<g>
			<polygon style="fill:#263238;" points="109.929,388.22 70.088,388.22 73.313,416.731 106.704,416.731 			"/>
		</g>
	</g>
</g>
<g id="Screen">
	<g>
		<g>
			<path style="fill:#407BFF;" d="M278.3,114.03V392.5c0,2.44-1.96,4.33-4.4,4.33H125.93c-1.11,0-2.06-0.41-2.76-1.11
				c-0.36-0.35-0.65-0.77-0.85-1.24c-0.21-0.49-0.33-1.04-0.33-1.62V113.67c0-1.94,1.43-3.64,3.37-3.64h39.19
				c1.1,0,2.11,0.72,2.52,1.76l1.63,4c0.13,0.32,0.31,0.61,0.55,0.86c0.03,0.05,0.08,0.1,0.13,0.14c0.05,0.05,0.11,0.1,0.17,0.15
				c0.08,0.07,0.17,0.13,0.27,0.19c0.18,0.12,0.38,0.21,0.59,0.27c0.25,0.09,0.53,0.14,0.81,0.14h57.95c1.11,0,2.11-0.69,2.52-1.72
				l1.63-4.02c0.41-1.04,1.41-1.77,2.52-1.77h38.62C276.59,110.03,278.3,111.89,278.3,114.03z"/>
		</g>
		<rect x="121.994" y="128.807" style="opacity:0.5;fill:#FFFFFF;" width="156.305" height="244.996"/>
		<rect x="121.994" y="343.548" style="opacity:0.5;fill:#FFFFFF;enable-background:new    ;" width="156.305" height="30.256"/>
		<rect x="121.994" y="128.807" style="opacity:0.5;fill:#FFFFFF;enable-background:new    ;" width="156.305" height="25.101"/>
		<g>
			<g>
				<path style="fill:#407BFF;" d="M127.199,141.358c0,2.368,0.963,4.514,2.523,6.063c0.033,0.033,0.066,0.066,0.105,0.1
					c1.123,1.09,2.556,1.87,4.149,2.207c0.061,0.011,0.122,0.022,0.183,0.033c0.299,0.055,0.603,0.1,0.907,0.122
					c0.227,0.017,0.454,0.028,0.686,0.028c0.066,0,0.127,0,0.194-0.005c0.166,0,0.332-0.011,0.498-0.022
					c0.172-0.011,0.343-0.033,0.515-0.061c0.216-0.028,0.431-0.066,0.647-0.116c0.028,0,0.055-0.011,0.083-0.017
					c1.206-0.277,2.318-0.813,3.27-1.549c0.022-0.011,0.039-0.028,0.061-0.044c0.072-0.055,0.138-0.111,0.21-0.177
					c1.881-1.56,3.076-3.922,3.076-6.561c0-4.724-3.828-8.552-8.552-8.552C131.027,132.805,127.199,136.633,127.199,141.358z"/>
				<g>
					<path style="fill:#263238;" d="M130.809,139.656c0,0-1.049,3.961,0.291,5.18c1.34,1.219,8.857,1.193,9.939-0.299
						c1.083-1.492-1.371-6.374-1.371-6.374L130.809,139.656z"/>
					<path style="fill:#407BFF;" d="M129.827,147.52c1.123,1.09,2.556,1.87,4.149,2.207c0.061,0.011,0.122,0.022,0.183,0.033
						c0.299,0.055,0.603,0.1,0.907,0.122c0.227,0.017,0.454,0.028,0.686,0.028c0.066,0,0.127,0,0.194-0.005
						c0.166,0,0.332-0.011,0.498-0.022c0.172-0.011,0.343-0.033,0.515-0.061c0.216-0.028,0.431-0.066,0.647-0.116v0.061
						c0.028-0.022,0.055-0.05,0.083-0.077c1.206-0.277,2.318-0.813,3.27-1.549c-0.044-0.144-0.1-0.288-0.155-0.426l-0.028-0.011
						l-0.039-0.011l-0.066-0.022c-0.194-0.061-0.592-0.188-1.14-0.326l-0.055-0.011c-0.321-0.083-0.691-0.172-1.106-0.255
						c-0.254-0.05-0.52-0.1-0.802-0.144c-0.033-0.006-0.072-0.017-0.111-0.017c-0.005,0-0.005,0-0.005,0
						c-0.238-0.044-0.487-0.077-0.747-0.111c-0.094-0.011-0.188-0.022-0.282-0.028c-0.393-0.05-0.797-0.083-1.217-0.105
						c-0.144-0.005-0.288-0.011-0.437-0.011c-0.183,0-0.371,0.006-0.564,0.017c-0.238,0.005-0.476,0.028-0.714,0.055
						c-0.194,0.017-0.382,0.044-0.57,0.072h-0.006c-0.354,0.05-0.697,0.111-1.029,0.177
						C131.116,147.144,130.402,147.343,129.827,147.52z"/>
					<path style="opacity:0.6;fill:#FFFFFF;" d="M129.827,147.52c1.123,1.09,2.556,1.87,4.149,2.207
						c0.061,0.011,0.122,0.022,0.183,0.033c0.299,0.055,0.603,0.1,0.907,0.122c0.227,0.017,0.454,0.028,0.686,0.028
						c0.066,0,0.127,0,0.194-0.005c0.166,0,0.332-0.011,0.498-0.022c0.172-0.011,0.343-0.033,0.515-0.061
						c0.216-0.028,0.431-0.066,0.647-0.116v0.061c0.028-0.022,0.055-0.05,0.083-0.077c1.206-0.277,2.318-0.813,3.27-1.549
						c-0.044-0.144-0.1-0.288-0.155-0.426l-0.028-0.011l-0.039-0.011l-0.066-0.022c-0.194-0.061-0.592-0.188-1.14-0.326
						l-0.055-0.011c-0.321-0.083-0.691-0.172-1.106-0.255c-0.254-0.05-0.52-0.1-0.802-0.144c-0.033-0.006-0.072-0.017-0.111-0.017
						c-0.005,0-0.005,0-0.005,0c-0.238-0.044-0.487-0.077-0.747-0.111c-0.094-0.011-0.188-0.022-0.282-0.028
						c-0.393-0.05-0.797-0.083-1.217-0.105c-0.144-0.005-0.288-0.011-0.437-0.011c-0.183,0-0.371,0.006-0.564,0.017
						c-0.238,0.005-0.476,0.028-0.714,0.055c-0.194,0.017-0.382,0.044-0.57,0.072h-0.006c-0.354,0.05-0.697,0.111-1.029,0.177
						C131.116,147.144,130.402,147.343,129.827,147.52z"/>
					<path style="fill:#263238;" d="M139.935,139.395c0,0,0.444-6.475-5.257-4.977c-7.155,1.88-3.024,10.487,0.498,9.394
						C138.698,142.72,139.935,139.395,139.935,139.395z"/>
					<path style="opacity:0.2;enable-background:new    ;" d="M132.615,147.055l1.256,2.467l0.105,0.205
						c0.061,0.011,0.122,0.022,0.183,0.033c0.299,0.055,0.603,0.1,0.907,0.122l0.686-0.913c0.072,0.288,0.133,0.603,0.194,0.935
						c0.166,0,0.332-0.011,0.498-0.022c-0.05-0.559-0.088-0.913-0.088-0.913l0.603,0.852c0.216-0.028,0.431-0.066,0.647-0.116
						l0.116-2.672c-0.089-0.044-0.177-0.083-0.266-0.116c-0.005,0-0.005,0-0.005,0c-0.266-0.111-0.542-0.188-0.819-0.243
						c-0.061-0.011-0.122-0.022-0.183-0.028c-0.592-0.094-1.189-0.089-1.731-0.033c-0.177,0.017-0.354,0.039-0.514,0.066
						c-0.321,0.044-0.609,0.105-0.846,0.166h-0.005c-0.398,0.099-0.664,0.182-0.725,0.205L132.615,147.055z"/>
					<path style="fill:#B97964;" d="M136.046,147.712l-2.795-0.79c1.722-1.186,0.854-3.836,0.854-3.836l2.769,0.973
						c-0.148,0.46-0.241,0.85-0.297,1.183c-0.289,1.727,0.491,1.865,0.491,1.865L136.046,147.712z"/>
					<path style="opacity:0.2;enable-background:new    ;" d="M136.874,144.061c-0.148,0.46-0.241,0.85-0.297,1.183
						c-1.325-0.531-2.472-2.156-2.472-2.156L136.874,144.061z"/>
					<g>
						<path style="fill:#B97964;" d="M136.235,136.032c2.506-0.163,3.4,1.127,3.751,3.698c0.439,3.213-0.128,5.552-3.307,5.066
							C132.363,144.136,132.073,136.302,136.235,136.032z"/>
						<path style="fill:#A24E3F;" d="M138.357,139.695c0,0,0.39,0.632,0.797,0.992c0,0-0.192,0.355-0.642,0.326L138.357,139.695z"/>
						<g>
							<path style="fill:#263238;" d="M136.81,139.589c0.018,0.206-0.078,0.382-0.215,0.394c-0.137,0.012-0.263-0.145-0.281-0.35
								c-0.018-0.206,0.078-0.382,0.215-0.394C136.666,139.227,136.792,139.384,136.81,139.589z"/>
							<path style="fill:#263238;" d="M136.472,139.254l0.432-0.215C136.904,139.039,136.715,139.435,136.472,139.254z"/>
						</g>
						<g>
							<path style="fill:#263238;" d="M139.361,139.321c0.018,0.206-0.078,0.382-0.215,0.394c-0.137,0.012-0.263-0.145-0.281-0.35
								c-0.018-0.205,0.078-0.382,0.215-0.394C139.217,138.958,139.343,139.115,139.361,139.321z"/>
							<path style="fill:#263238;" d="M139.024,138.986l0.432-0.215C139.456,138.771,139.266,139.167,139.024,138.986z"/>
						</g>
						
							<path style="fill:none;stroke:#263238;stroke-width:0.7247;stroke-linecap:round;stroke-linejoin:round;stroke-miterlimit:10;" d="
							M136.672,137.86c0,0-0.71-0.046-1.062,0.449"/>
						
							<path style="fill:none;stroke:#263238;stroke-width:0.7247;stroke-linecap:round;stroke-linejoin:round;stroke-miterlimit:10;" d="
							M138.487,137.636c0,0,0.432-0.193,1.012,0.141"/>
						<path style="fill:#263238;" d="M133.77,140.434c0,0,1.038-2.135,0.758-3.714c0,0,4.835-2.351,5.407,2.674
							c0,0,0.195-4.508-4.12-4.328c-4.308,0.179-3.888,6.482-1.541,8.215C134.274,143.282,133.128,141.768,133.77,140.434z"/>
						<path style="fill:#B97964;" d="M134.214,140.936c-0.043-0.402-0.504-1.059-1.249-0.928c-0.771,0.135-1.038,1.754,0.919,2.012
							C134.164,142.057,134.303,141.776,134.214,140.936z"/>
						<g>
							<path style="fill:#263238;" d="M138.803,142.001c-0.135,0.307-0.264,0.881-0.264,0.881c-0.054-0.002-0.108-0.005-0.162-0.01
								c-0.733-0.05-1.057-0.316-1.193-0.595c-0.074-0.153-0.09-0.312-0.087-0.44c0.003-0.148,0.039-0.254,0.039-0.254
								c0.373,0.259,1.052,0.358,1.418,0.396C138.706,141.997,138.803,142.001,138.803,142.001z"/>
							<path style="fill:#FFFFFF;" d="M138.553,141.98l-0.085,0.258c-0.69-0.049-1.17-0.176-1.372-0.4
								c0.003-0.148,0.039-0.254,0.039-0.254C137.508,141.843,138.188,141.942,138.553,141.98z"/>
							<path style="fill:#DE5753;" d="M138.376,142.872c-0.733-0.05-1.057-0.316-1.193-0.595c0.249,0.027,0.547,0.087,0.803,0.217
								C138.183,142.594,138.301,142.734,138.376,142.872z"/>
						</g>
						<path style="fill:#263238;" d="M136.196,136.224c0,0-0.742,4.189-3.342,4.305c-2.6,0.115,1.069-5.366,1.069-5.366
							s4.134-1.874,6.371,0.241c2.237,2.115-0.358,3.99-0.358,3.99S139.888,136.191,136.196,136.224z"/>
						
							<path style="fill:none;stroke:#263238;stroke-width:0.5;stroke-linecap:round;stroke-linejoin:round;stroke-miterlimit:10;" d="
							M136.152,135.933c0,0,0.489,2.796-1.502,3.917"/>
						<g>
							<path style="fill:#263238;" d="M133.4,140.118c0,0.033,0.028,0.061,0.061,0.066h0.017l0.232-0.022h0.006l0.182-0.017
								l0.155-0.011h0.005l1.842-0.166c0.089,0.476,0.465,0.868,0.968,0.946c0.636,0.094,1.234-0.343,1.328-0.979
								c0.011-0.061,0.011-0.122,0.011-0.183c0.089-0.127,0.177-0.194,0.254-0.194c0.1,0.006,0.166,0.1,0.166,0.105
								c0.077,0.387,0.343,0.714,0.714,0.863c0.077,0.033,0.166,0.055,0.255,0.072c0.166,0.028,0.332,0.017,0.481-0.028
								c0.193-0.05,0.365-0.149,0.503-0.288c0.183-0.171,0.304-0.398,0.343-0.664c0.055-0.354-0.055-0.703-0.277-0.952
								c-0.177-0.199-0.415-0.337-0.697-0.382c-0.017-0.006-0.033-0.006-0.05-0.006c-0.022-0.005-0.044-0.005-0.066,0
								c-0.039-0.005-0.077-0.005-0.111,0c-0.006-0.005-0.011-0.005-0.017,0c-0.005-0.005-0.016,0-0.022,0
								c-0.531,0.039-0.985,0.437-1.068,0.985c-0.011,0.061-0.011,0.122-0.011,0.188c-0.039-0.022-0.083-0.044-0.138-0.044
								c-0.094,0-0.188,0.05-0.277,0.138c-0.089-0.476-0.465-0.868-0.968-0.946c-0.039-0.006-0.077-0.011-0.116-0.006h-0.006
								c-0.171-0.017-0.332,0.017-0.481,0.077l-0.006,0.006h-0.006c-0.371,0.149-0.653,0.481-0.719,0.902
								c-0.011,0.083-0.017,0.16-0.011,0.243l-1.593,0.138l-0.321,0.028l-0.498,0.044c-0.006,0-0.011,0.005-0.011,0.005
								C133.417,140.046,133.395,140.08,133.4,140.118z M138.761,139.289c0.077-0.492,0.487-0.846,0.968-0.857
								c0.006-0.005,0.006-0.005,0.011-0.005c0.006,0,0.006,0,0.011,0h0.044c0.022,0,0.039,0,0.061,0.005
								c0.022,0,0.039,0,0.061,0.006c0.006,0,0.006,0,0.011,0c0.249,0.039,0.47,0.166,0.625,0.349
								c0.182,0.221,0.277,0.514,0.227,0.813c-0.033,0.205-0.122,0.387-0.26,0.531c-0.116,0.138-0.277,0.238-0.454,0.288
								c-0.144,0.044-0.293,0.055-0.448,0.033c-0.072-0.011-0.138-0.028-0.199-0.05
								C138.971,140.235,138.689,139.775,138.761,139.289z M136.039,139.604c0.083-0.559,0.603-0.941,1.162-0.852
								c0.559,0.083,0.94,0.608,0.852,1.162c-0.083,0.559-0.609,0.94-1.162,0.852C136.332,140.683,135.951,140.157,136.039,139.604z
								"/>
						</g>
						<g style="opacity:0.8;enable-background:new    ;">
							<path style="fill:#FFFFFF;" d="M133.4,140.118c0,0.033,0.028,0.061,0.061,0.066h0.017l0.232-0.022h0.006l0.182-0.017
								l0.155-0.011h0.005l1.842-0.166c0.089,0.476,0.465,0.868,0.968,0.946c0.636,0.094,1.234-0.343,1.328-0.979
								c0.011-0.061,0.011-0.122,0.011-0.183c0.089-0.127,0.177-0.194,0.254-0.194c0.1,0.006,0.166,0.1,0.166,0.105
								c0.077,0.387,0.343,0.714,0.714,0.863c0.077,0.033,0.166,0.055,0.255,0.072c0.166,0.028,0.332,0.017,0.481-0.028
								c0.193-0.05,0.365-0.149,0.503-0.288c0.183-0.171,0.304-0.398,0.343-0.664c0.055-0.354-0.055-0.703-0.277-0.952
								c-0.177-0.199-0.415-0.337-0.697-0.382c-0.017-0.006-0.033-0.006-0.05-0.006c-0.022-0.005-0.044-0.005-0.066,0
								c-0.039-0.005-0.077-0.005-0.111,0c-0.006-0.005-0.011-0.005-0.017,0c-0.005-0.005-0.016,0-0.022,0
								c-0.531,0.039-0.985,0.437-1.068,0.985c-0.011,0.061-0.011,0.122-0.011,0.188c-0.039-0.022-0.083-0.044-0.138-0.044
								c-0.094,0-0.188,0.05-0.277,0.138c-0.089-0.476-0.465-0.868-0.968-0.946c-0.039-0.006-0.077-0.011-0.116-0.006h-0.006
								c-0.171-0.017-0.332,0.017-0.481,0.077l-0.006,0.006h-0.006c-0.371,0.149-0.653,0.481-0.719,0.902
								c-0.011,0.083-0.017,0.16-0.011,0.243l-1.593,0.138l-0.321,0.028l-0.498,0.044c-0.006,0-0.011,0.005-0.011,0.005
								C133.417,140.046,133.395,140.08,133.4,140.118z M138.761,139.289c0.077-0.492,0.487-0.846,0.968-0.857
								c0.006-0.005,0.006-0.005,0.011-0.005c0.006,0,0.006,0,0.011,0h0.044c0.022,0,0.039,0,0.061,0.005
								c0.022,0,0.039,0,0.061,0.006c0.006,0,0.006,0,0.011,0c0.249,0.039,0.47,0.166,0.625,0.349
								c0.182,0.221,0.277,0.514,0.227,0.813c-0.033,0.205-0.122,0.387-0.26,0.531c-0.116,0.138-0.277,0.238-0.454,0.288
								c-0.144,0.044-0.293,0.055-0.448,0.033c-0.072-0.011-0.138-0.028-0.199-0.05
								C138.971,140.235,138.689,139.775,138.761,139.289z M136.039,139.604c0.083-0.559,0.603-0.941,1.162-0.852
								c0.559,0.083,0.94,0.608,0.852,1.162c-0.083,0.559-0.609,0.94-1.162,0.852C136.332,140.683,135.951,140.157,136.039,139.604z
								"/>
						</g>
					</g>
					<polygon style="fill:#407BFF;" points="134.001,145.91 135.751,147.629 135.051,149.736 132.616,147.055 					"/>
					<polygon style="fill:#407BFF;" points="136.532,146.269 136.249,147.593 137.156,149.464 137.721,147.033 					"/>
					<g>
						<path style="fill:#263238;" d="M137.688,149.689c1.206-0.277,2.318-0.813,3.27-1.549c0.022-0.011,0.039-0.028,0.061-0.044
							c0.072-0.055,0.138-0.111,0.21-0.177c-0.111-0.061-0.254-0.133-0.426-0.205c-1.256-0.537-2.445-0.708-2.445-0.708
							s0.005,0.022,0.011,0.072C138.418,147.398,138.567,148.765,137.688,149.689z"/>
						<path style="fill:#263238;" d="M129.722,147.421c0.033,0.033,0.066,0.066,0.105,0.1c1.123,1.09,2.556,1.87,4.149,2.207
							c0.061,0.011,0.122,0.022,0.183,0.033c-0.1-0.072-0.194-0.155-0.288-0.238c-0.133-0.116-0.266-0.238-0.387-0.371
							c-0.16-0.16-0.31-0.332-0.453-0.503c-0.05-0.055-0.094-0.116-0.138-0.171c-0.089-0.111-0.177-0.227-0.255-0.332
							c-0.083-0.111-0.155-0.221-0.227-0.321c-0.072-0.105-0.138-0.205-0.193-0.293c-0.149-0.232-0.266-0.42-0.332-0.548
							c-0.061-0.1-0.088-0.155-0.088-0.155S130.762,147.072,129.722,147.421z"/>
						<path style="opacity:0.1;fill:#FFFFFF;enable-background:new    ;" d="M129.722,147.421c0.033,0.033,0.066,0.066,0.105,0.1
							c1.123,1.09,2.556,1.87,4.149,2.207c0.061,0.011,0.122,0.022,0.183,0.033c-0.1-0.072-0.194-0.155-0.288-0.238
							c-0.133-0.116-0.266-0.238-0.387-0.371c-0.16-0.16-0.31-0.332-0.453-0.503c-0.05-0.055-0.094-0.116-0.138-0.171
							c-0.089-0.111-0.177-0.227-0.255-0.332c-0.083-0.111-0.155-0.221-0.227-0.321c-0.072-0.105-0.138-0.205-0.193-0.293
							c-0.149-0.232-0.266-0.42-0.332-0.548c-0.061-0.1-0.088-0.155-0.088-0.155S130.762,147.072,129.722,147.421z"/>
					</g>
					<polygon style="opacity:0.6;fill:#FFFFFF;" points="134.001,145.91 135.751,147.629 135.051,149.736 132.616,147.055 					"/>
					<polygon style="opacity:0.6;fill:#FFFFFF;" points="136.532,146.269 136.249,147.593 137.156,149.464 137.721,147.033 					"/>
					<g style="opacity:0.1;enable-background:new    ;">
						<path style="fill:#FFFFFF;" d="M137.688,149.689c1.206-0.277,2.318-0.813,3.27-1.549c0.022-0.011,0.039-0.028,0.061-0.044
							c0.072-0.055,0.138-0.111,0.21-0.177c-0.111-0.061-0.254-0.133-0.426-0.205c-1.256-0.537-2.445-0.708-2.445-0.708
							s0.005,0.022,0.011,0.072C138.418,147.398,138.567,148.765,137.688,149.689z"/>
						<path style="fill:#FFFFFF;" d="M129.722,147.421c0.033,0.033,0.066,0.066,0.105,0.1c1.123,1.09,2.556,1.87,4.149,2.207
							c0.061,0.011,0.122,0.022,0.183,0.033c-0.1-0.072-0.194-0.155-0.288-0.238c-0.133-0.116-0.266-0.238-0.387-0.371
							c-0.16-0.16-0.31-0.332-0.453-0.503c-0.05-0.055-0.094-0.116-0.138-0.171c-0.089-0.111-0.177-0.227-0.255-0.332
							c-0.083-0.111-0.155-0.221-0.227-0.321c-0.072-0.105-0.138-0.205-0.193-0.293c-0.149-0.232-0.266-0.42-0.332-0.548
							c-0.061-0.1-0.088-0.155-0.088-0.155S130.762,147.072,129.722,147.421z"/>
					</g>
				</g>
			</g>
			<path style="opacity:0.2;enable-background:new    ;" d="M179.712,143.27H149.91c-1.056,0-1.912-0.856-1.912-1.912l0,0
				c0-1.056,0.856-1.912,1.912-1.912h29.802c1.056,0,1.912,0.856,1.912,1.912l0,0C181.624,142.414,180.768,143.27,179.712,143.27z"
				/>
			<g style="opacity:0.2;enable-background:new    ;">
				<rect x="229.185" y="138.807" width="6.791" height="5.1"/>
				<polygon points="237.886,143.272 236.242,142.521 236.242,140.194 237.886,139.443 				"/>
			</g>
			<g style="opacity:0.2;enable-background:new    ;">
				<path d="M248.12,137.232l-0.964,0.668l1.924,1.924l0.554-0.47c0.361-0.307,0.898-0.285,1.233,0.05l1.778,1.779
					c0.335,0.335,0.357,0.871,0.05,1.233l-0.47,0.554l1.924,1.924l0.668-0.964c0.589-0.85,0.485-1.999-0.246-2.73l-3.721-3.721
					C250.119,136.747,248.97,136.644,248.12,137.232z"/>
				
					<rect x="246.047" y="138.837" transform="matrix(0.7071 0.7071 -0.7071 0.7071 171.0478 -134.3094)" width="3.205" height="0.963"/>
				
					<rect x="251.118" y="143.908" transform="matrix(0.7071 0.7071 -0.7071 0.7071 176.113 -136.4083)" width="3.205" height="0.963"/>
			</g>
			<g style="opacity:0.2;enable-background:new    ;">
				<path d="M272.714,137.973h-6.476c-0.211,0-0.383,0.171-0.383,0.383s0.171,0.383,0.383,0.383h6.476
					c0.211,0,0.383-0.171,0.383-0.383S272.926,137.973,272.714,137.973z"/>
				<path d="M272.714,139.974h-6.476c-0.211,0-0.383,0.171-0.383,0.383s0.171,0.383,0.383,0.383h6.476
					c0.211,0,0.383-0.171,0.383-0.383S272.926,139.974,272.714,139.974z"/>
				<path d="M272.714,141.976h-6.476c-0.211,0-0.383,0.171-0.383,0.383c0,0.211,0.171,0.383,0.383,0.383h6.476
					c0.211,0,0.383-0.171,0.383-0.383C273.097,142.147,272.926,141.976,272.714,141.976z"/>
				<path d="M272.714,143.977h-6.476c-0.211,0-0.383,0.171-0.383,0.383s0.171,0.383,0.383,0.383h6.476
					c0.211,0,0.383-0.171,0.383-0.383S272.926,143.977,272.714,143.977z"/>
			</g>
		</g>
		<g>
			<g>
				
					<rect x="140.186" y="119.257" transform="matrix(-1 -1.224647e-16 1.224647e-16 -1 282.4109 241.2315)" style="opacity:0.6;fill:#FFFFFF;enable-background:new    ;" width="2.039" height="2.718"/>
				
					<rect x="136.863" y="118.35" transform="matrix(-1 -1.224647e-16 1.224647e-16 -1 275.7655 240.3248)" style="opacity:0.6;fill:#FFFFFF;enable-background:new    ;" width="2.039" height="3.625"/>
				
					<rect x="133.541" y="117.443" transform="matrix(-1 -1.224647e-16 1.224647e-16 -1 269.1202 239.4181)" style="opacity:0.6;fill:#FFFFFF;enable-background:new    ;" width="2.039" height="4.531"/>
				
					<rect x="130.218" y="116.536" transform="matrix(-1 -1.224647e-16 1.224647e-16 -1 262.4748 238.5113)" style="opacity:0.6;fill:#FFFFFF;enable-background:new    ;" width="2.039" height="5.438"/>
			</g>
			<g>
				<rect x="258.411" y="118.265" style="opacity:0.6;fill:#FFFFFF;enable-background:new    ;" width="1.208" height="2.718"/>
				
					<rect x="260.45" y="117.273" transform="matrix(-1 -1.224647e-16 1.224647e-16 -1 530.5284 239.2477)" style="opacity:0.6;fill:#FFFFFF;enable-background:new    ;" width="9.628" height="4.702"/>
			</g>
		</g>
		<path style="fill:#FFFFFF;" d="M158.831,350.764h104.81c4.37,0,7.912,3.542,7.912,7.912v0c0,4.37-3.542,7.912-7.912,7.912h-104.81
			c-4.37,0-7.912-3.542-7.912-7.912v0C150.919,354.306,154.462,350.764,158.831,350.764z"/>
		<g>
			<path style="opacity:0.2;enable-background:new    ;" d="M202.422,187.015l-45.824,0.333l-4.827,3V167.34
				c0-3.057,2.478-5.535,5.535-5.535l45.117-0.333c3.057,0,5.535,2.478,5.535,5.535v14.473
				C207.957,184.537,205.479,187.015,202.422,187.015z"/>
			<g>
				
					<line style="fill:none;stroke:#FFFFFF;stroke-linecap:round;stroke-linejoin:round;stroke-miterlimit:10;" x1="158.86" y1="169.141" x2="200.025" y2="169.141"/>
				
					<line style="fill:none;stroke:#FFFFFF;stroke-linecap:round;stroke-linejoin:round;stroke-miterlimit:10;" x1="158.86" y1="174.218" x2="200.025" y2="174.218"/>
				
					<line style="fill:none;stroke:#FFFFFF;stroke-linecap:round;stroke-linejoin:round;stroke-miterlimit:10;" x1="158.86" y1="179.295" x2="184.025" y2="179.295"/>
			</g>
		</g>
		
			<ellipse transform="matrix(0.7071 -0.7071 0.7071 0.7071 -213.5286 201.8477)" style="fill:#407BFF;" cx="136.887" cy="358.676" rx="7.82" ry="7.82"/>
		<g style="opacity:0.05;enable-background:new    ;">
			<path style="fill:#FFFFFF;" d="M187.815,117.534l-42.119,157.765v0.009l-0.469,1.773v0.009l-0.76,2.842v0.009l-0.478,1.772
				l-21.993,82.38v-99.702l41.209-154.36h1.341c1.107,0,2.11,0.722,2.523,1.763l1.622,3.995c0.413,1.032,1.416,1.744,2.523,1.744
				H187.815z"/>
			<path style="fill:#FFFFFF;" d="M202.24,117.53v0.01l-41.86,156.77l-0.25,0.94l-2.29,8.59l-0.25,0.94l-29.91,112.05h-1.75
				c-1.11,0-2.06-0.41-2.76-1.11c-0.36-0.35-0.65-0.77-0.85-1.24l29.28-109.7l0.26-0.94l2.29-8.59l0.25-0.94l41.86-156.77v-0.01
				H202.24z"/>
		</g>
		<g>
			<path style="fill:#407BFF;" d="M130.199,170.358c0,2.368,0.963,4.514,2.523,6.063c0.033,0.033,0.066,0.066,0.105,0.1
				c1.123,1.09,2.556,1.87,4.149,2.207c0.061,0.011,0.122,0.022,0.183,0.033c0.299,0.055,0.603,0.1,0.907,0.122
				c0.227,0.017,0.454,0.028,0.686,0.028c0.066,0,0.127,0,0.194-0.005c0.166,0,0.332-0.011,0.498-0.022
				c0.172-0.011,0.343-0.033,0.515-0.061c0.216-0.028,0.431-0.066,0.647-0.116c0.028,0,0.055-0.011,0.083-0.017
				c1.206-0.277,2.318-0.813,3.27-1.549c0.022-0.011,0.039-0.028,0.061-0.044c0.072-0.055,0.138-0.111,0.21-0.177
				c1.881-1.56,3.076-3.922,3.076-6.561c0-4.724-3.828-8.552-8.552-8.552C134.027,161.805,130.199,165.633,130.199,170.358z"/>
			<g>
				<path style="fill:#263238;" d="M133.809,168.656c0,0-1.049,3.961,0.291,5.18c1.34,1.219,8.857,1.193,9.939-0.299
					c1.083-1.492-1.371-6.374-1.371-6.374L133.809,168.656z"/>
				<path style="fill:#407BFF;" d="M132.827,176.52c1.123,1.09,2.556,1.87,4.149,2.207c0.061,0.011,0.122,0.022,0.183,0.033
					c0.299,0.055,0.603,0.1,0.907,0.122c0.227,0.017,0.454,0.028,0.686,0.028c0.066,0,0.127,0,0.194-0.005
					c0.166,0,0.332-0.011,0.498-0.022c0.172-0.011,0.343-0.033,0.515-0.061c0.216-0.028,0.431-0.066,0.647-0.116v0.061
					c0.028-0.022,0.055-0.05,0.083-0.077c1.206-0.277,2.318-0.813,3.27-1.549c-0.044-0.144-0.1-0.288-0.155-0.426l-0.028-0.011
					l-0.039-0.011l-0.066-0.022c-0.194-0.061-0.592-0.188-1.14-0.326l-0.055-0.011c-0.321-0.083-0.691-0.172-1.106-0.255
					c-0.254-0.05-0.52-0.1-0.802-0.144c-0.033-0.006-0.072-0.017-0.111-0.017c-0.005,0-0.005,0-0.005,0
					c-0.238-0.044-0.487-0.077-0.747-0.111c-0.094-0.011-0.188-0.022-0.282-0.028c-0.393-0.05-0.797-0.083-1.217-0.105
					c-0.144-0.005-0.288-0.011-0.437-0.011c-0.183,0-0.371,0.006-0.564,0.017c-0.238,0.005-0.476,0.028-0.714,0.055
					c-0.194,0.017-0.382,0.044-0.57,0.072h-0.006c-0.354,0.05-0.697,0.111-1.029,0.177
					C134.116,176.144,133.402,176.343,132.827,176.52z"/>
				<path style="opacity:0.6;fill:#FFFFFF;" d="M132.827,176.52c1.123,1.09,2.556,1.87,4.149,2.207
					c0.061,0.011,0.122,0.022,0.183,0.033c0.299,0.055,0.603,0.1,0.907,0.122c0.227,0.017,0.454,0.028,0.686,0.028
					c0.066,0,0.127,0,0.194-0.005c0.166,0,0.332-0.011,0.498-0.022c0.172-0.011,0.343-0.033,0.515-0.061
					c0.216-0.028,0.431-0.066,0.647-0.116v0.061c0.028-0.022,0.055-0.05,0.083-0.077c1.206-0.277,2.318-0.813,3.27-1.549
					c-0.044-0.144-0.1-0.288-0.155-0.426l-0.028-0.011l-0.039-0.011l-0.066-0.022c-0.194-0.061-0.592-0.188-1.14-0.326l-0.055-0.011
					c-0.321-0.083-0.691-0.172-1.106-0.255c-0.254-0.05-0.52-0.1-0.802-0.144c-0.033-0.006-0.072-0.017-0.111-0.017
					c-0.005,0-0.005,0-0.005,0c-0.238-0.044-0.487-0.077-0.747-0.111c-0.094-0.011-0.188-0.022-0.282-0.028
					c-0.393-0.05-0.797-0.083-1.217-0.105c-0.144-0.005-0.288-0.011-0.437-0.011c-0.183,0-0.371,0.006-0.564,0.017
					c-0.238,0.005-0.476,0.028-0.714,0.055c-0.194,0.017-0.382,0.044-0.57,0.072h-0.006c-0.354,0.05-0.697,0.111-1.029,0.177
					C134.116,176.144,133.402,176.343,132.827,176.52z"/>
				<path style="fill:#263238;" d="M142.935,168.395c0,0,0.444-6.475-5.257-4.977c-7.155,1.88-3.024,10.487,0.498,9.394
					C141.698,171.72,142.935,168.395,142.935,168.395z"/>
				<path style="opacity:0.2;enable-background:new    ;" d="M135.615,176.055l1.256,2.467l0.105,0.205
					c0.061,0.011,0.122,0.022,0.183,0.033c0.299,0.055,0.603,0.1,0.907,0.122l0.686-0.913c0.072,0.288,0.133,0.603,0.194,0.935
					c0.166,0,0.332-0.011,0.498-0.022c-0.05-0.559-0.088-0.913-0.088-0.913l0.603,0.852c0.216-0.028,0.431-0.066,0.647-0.116
					l0.116-2.672c-0.089-0.044-0.177-0.083-0.266-0.116c-0.005,0-0.005,0-0.005,0c-0.266-0.111-0.542-0.188-0.819-0.243
					c-0.061-0.011-0.122-0.022-0.183-0.028c-0.592-0.094-1.189-0.089-1.731-0.033c-0.177,0.017-0.354,0.039-0.514,0.066
					c-0.321,0.044-0.609,0.105-0.846,0.166h-0.005c-0.398,0.099-0.664,0.182-0.725,0.205L135.615,176.055z"/>
				<path style="fill:#B97964;" d="M139.046,176.712l-2.795-0.79c1.722-1.186,0.854-3.836,0.854-3.836l2.769,0.973
					c-0.148,0.46-0.241,0.85-0.297,1.183c-0.289,1.727,0.491,1.865,0.491,1.865L139.046,176.712z"/>
				<path style="opacity:0.2;enable-background:new    ;" d="M139.874,173.061c-0.148,0.46-0.241,0.85-0.297,1.183
					c-1.325-0.531-2.472-2.156-2.472-2.156L139.874,173.061z"/>
				<g>
					<path style="fill:#B97964;" d="M139.235,165.032c2.506-0.163,3.4,1.127,3.751,3.698c0.439,3.213-0.128,5.552-3.307,5.066
						C135.363,173.136,135.073,165.302,139.235,165.032z"/>
					<path style="fill:#A24E3F;" d="M141.357,168.695c0,0,0.39,0.632,0.797,0.992c0,0-0.192,0.355-0.642,0.326L141.357,168.695z"/>
					<g>
						<path style="fill:#263238;" d="M139.81,168.589c0.018,0.206-0.078,0.382-0.215,0.394c-0.137,0.012-0.263-0.145-0.281-0.35
							c-0.018-0.206,0.078-0.382,0.215-0.394C139.666,168.227,139.792,168.384,139.81,168.589z"/>
						<path style="fill:#263238;" d="M139.472,168.254l0.432-0.215C139.904,168.039,139.715,168.435,139.472,168.254z"/>
					</g>
					<g>
						<path style="fill:#263238;" d="M142.361,168.321c0.018,0.206-0.078,0.382-0.215,0.394c-0.137,0.012-0.263-0.145-0.281-0.35
							c-0.018-0.205,0.078-0.382,0.215-0.394C142.217,167.958,142.343,168.115,142.361,168.321z"/>
						<path style="fill:#263238;" d="M142.024,167.986l0.432-0.215C142.456,167.771,142.266,168.167,142.024,167.986z"/>
					</g>
					
						<path style="fill:none;stroke:#263238;stroke-width:0.7247;stroke-linecap:round;stroke-linejoin:round;stroke-miterlimit:10;" d="
						M139.672,166.86c0,0-0.71-0.046-1.062,0.449"/>
					
						<path style="fill:none;stroke:#263238;stroke-width:0.7247;stroke-linecap:round;stroke-linejoin:round;stroke-miterlimit:10;" d="
						M141.487,166.636c0,0,0.432-0.193,1.012,0.141"/>
					<path style="fill:#263238;" d="M136.77,169.434c0,0,1.038-2.135,0.758-3.714c0,0,4.835-2.351,5.407,2.674
						c0,0,0.195-4.508-4.12-4.328c-4.308,0.179-3.888,6.482-1.541,8.215C137.274,172.282,136.128,170.768,136.77,169.434z"/>
					<path style="fill:#B97964;" d="M137.214,169.936c-0.043-0.402-0.504-1.059-1.249-0.928c-0.771,0.135-1.038,1.754,0.919,2.012
						C137.164,171.057,137.303,170.776,137.214,169.936z"/>
					<g>
						<path style="fill:#263238;" d="M141.803,171.001c-0.135,0.307-0.264,0.881-0.264,0.881c-0.054-0.002-0.108-0.005-0.162-0.01
							c-0.733-0.05-1.057-0.316-1.193-0.595c-0.074-0.153-0.09-0.312-0.087-0.44c0.003-0.148,0.039-0.254,0.039-0.254
							c0.373,0.259,1.052,0.358,1.418,0.396C141.706,170.997,141.803,171.001,141.803,171.001z"/>
						<path style="fill:#FFFFFF;" d="M141.553,170.98l-0.085,0.258c-0.69-0.049-1.17-0.176-1.372-0.4
							c0.003-0.148,0.039-0.254,0.039-0.254C140.508,170.843,141.188,170.942,141.553,170.98z"/>
						<path style="fill:#DE5753;" d="M141.376,171.872c-0.733-0.05-1.057-0.316-1.193-0.595c0.249,0.027,0.547,0.087,0.803,0.217
							C141.183,171.594,141.301,171.734,141.376,171.872z"/>
					</g>
					<path style="fill:#263238;" d="M139.196,165.224c0,0-0.742,4.189-3.342,4.305c-2.6,0.115,1.069-5.366,1.069-5.366
						s4.134-1.874,6.371,0.241c2.237,2.115-0.358,3.99-0.358,3.99S142.888,165.191,139.196,165.224z"/>
					
						<path style="fill:none;stroke:#263238;stroke-width:0.5;stroke-linecap:round;stroke-linejoin:round;stroke-miterlimit:10;" d="
						M139.152,164.933c0,0,0.489,2.796-1.502,3.917"/>
					<g>
						<path style="fill:#263238;" d="M136.4,169.118c0,0.033,0.028,0.061,0.061,0.066h0.017l0.232-0.022h0.006l0.182-0.017
							l0.155-0.011h0.005l1.842-0.166c0.089,0.476,0.465,0.868,0.968,0.946c0.636,0.094,1.234-0.343,1.328-0.979
							c0.011-0.061,0.011-0.122,0.011-0.183c0.089-0.127,0.177-0.194,0.254-0.194c0.1,0.006,0.166,0.1,0.166,0.105
							c0.077,0.387,0.343,0.714,0.714,0.863c0.077,0.033,0.166,0.055,0.255,0.072c0.166,0.028,0.332,0.017,0.481-0.028
							c0.193-0.05,0.365-0.149,0.503-0.288c0.183-0.171,0.304-0.398,0.343-0.664c0.055-0.354-0.055-0.703-0.277-0.952
							c-0.177-0.199-0.415-0.337-0.697-0.382c-0.017-0.006-0.033-0.006-0.05-0.006c-0.022-0.005-0.044-0.005-0.066,0
							c-0.039-0.005-0.077-0.005-0.111,0c-0.006-0.005-0.011-0.005-0.017,0c-0.005-0.005-0.016,0-0.022,0
							c-0.531,0.039-0.985,0.437-1.068,0.985c-0.011,0.061-0.011,0.122-0.011,0.188c-0.039-0.022-0.083-0.044-0.138-0.044
							c-0.094,0-0.188,0.05-0.277,0.138c-0.089-0.476-0.465-0.868-0.968-0.946c-0.039-0.006-0.077-0.011-0.116-0.006h-0.006
							c-0.171-0.017-0.332,0.017-0.481,0.077l-0.006,0.006h-0.006c-0.371,0.149-0.653,0.481-0.719,0.902
							c-0.011,0.083-0.017,0.16-0.011,0.243l-1.593,0.138l-0.321,0.028l-0.498,0.044c-0.006,0-0.011,0.005-0.011,0.005
							C136.417,169.046,136.395,169.08,136.4,169.118z M141.761,168.289c0.077-0.492,0.487-0.846,0.968-0.857
							c0.006-0.005,0.006-0.005,0.011-0.005c0.006,0,0.006,0,0.011,0h0.044c0.022,0,0.039,0,0.061,0.005
							c0.022,0,0.039,0,0.061,0.006c0.006,0,0.006,0,0.011,0c0.249,0.039,0.47,0.166,0.625,0.349
							c0.182,0.221,0.277,0.514,0.227,0.813c-0.033,0.205-0.122,0.387-0.26,0.531c-0.116,0.138-0.277,0.238-0.454,0.288
							c-0.144,0.044-0.293,0.055-0.448,0.033c-0.072-0.011-0.138-0.028-0.199-0.05C141.971,169.235,141.689,168.775,141.761,168.289
							z M139.039,168.604c0.083-0.559,0.603-0.941,1.162-0.852c0.559,0.083,0.94,0.608,0.852,1.162
							c-0.083,0.559-0.609,0.94-1.162,0.852C139.332,169.683,138.951,169.157,139.039,168.604z"/>
					</g>
					<g style="opacity:0.8;enable-background:new    ;">
						<path style="fill:#FFFFFF;" d="M136.4,169.118c0,0.033,0.028,0.061,0.061,0.066h0.017l0.232-0.022h0.006l0.182-0.017
							l0.155-0.011h0.005l1.842-0.166c0.089,0.476,0.465,0.868,0.968,0.946c0.636,0.094,1.234-0.343,1.328-0.979
							c0.011-0.061,0.011-0.122,0.011-0.183c0.089-0.127,0.177-0.194,0.254-0.194c0.1,0.006,0.166,0.1,0.166,0.105
							c0.077,0.387,0.343,0.714,0.714,0.863c0.077,0.033,0.166,0.055,0.255,0.072c0.166,0.028,0.332,0.017,0.481-0.028
							c0.193-0.05,0.365-0.149,0.503-0.288c0.183-0.171,0.304-0.398,0.343-0.664c0.055-0.354-0.055-0.703-0.277-0.952
							c-0.177-0.199-0.415-0.337-0.697-0.382c-0.017-0.006-0.033-0.006-0.05-0.006c-0.022-0.005-0.044-0.005-0.066,0
							c-0.039-0.005-0.077-0.005-0.111,0c-0.006-0.005-0.011-0.005-0.017,0c-0.005-0.005-0.016,0-0.022,0
							c-0.531,0.039-0.985,0.437-1.068,0.985c-0.011,0.061-0.011,0.122-0.011,0.188c-0.039-0.022-0.083-0.044-0.138-0.044
							c-0.094,0-0.188,0.05-0.277,0.138c-0.089-0.476-0.465-0.868-0.968-0.946c-0.039-0.006-0.077-0.011-0.116-0.006h-0.006
							c-0.171-0.017-0.332,0.017-0.481,0.077l-0.006,0.006h-0.006c-0.371,0.149-0.653,0.481-0.719,0.902
							c-0.011,0.083-0.017,0.16-0.011,0.243l-1.593,0.138l-0.321,0.028l-0.498,0.044c-0.006,0-0.011,0.005-0.011,0.005
							C136.417,169.046,136.395,169.08,136.4,169.118z M141.761,168.289c0.077-0.492,0.487-0.846,0.968-0.857
							c0.006-0.005,0.006-0.005,0.011-0.005c0.006,0,0.006,0,0.011,0h0.044c0.022,0,0.039,0,0.061,0.005
							c0.022,0,0.039,0,0.061,0.006c0.006,0,0.006,0,0.011,0c0.249,0.039,0.47,0.166,0.625,0.349
							c0.182,0.221,0.277,0.514,0.227,0.813c-0.033,0.205-0.122,0.387-0.26,0.531c-0.116,0.138-0.277,0.238-0.454,0.288
							c-0.144,0.044-0.293,0.055-0.448,0.033c-0.072-0.011-0.138-0.028-0.199-0.05C141.971,169.235,141.689,168.775,141.761,168.289
							z M139.039,168.604c0.083-0.559,0.603-0.941,1.162-0.852c0.559,0.083,0.94,0.608,0.852,1.162
							c-0.083,0.559-0.609,0.94-1.162,0.852C139.332,169.683,138.951,169.157,139.039,168.604z"/>
					</g>
				</g>
				<polygon style="fill:#407BFF;" points="137.001,174.91 138.751,176.629 138.051,178.736 135.616,176.055 				"/>
				<polygon style="fill:#407BFF;" points="139.532,175.269 139.249,176.593 140.156,178.464 140.721,176.033 				"/>
				<g>
					<path style="fill:#263238;" d="M140.688,178.689c1.206-0.277,2.318-0.813,3.27-1.549c0.022-0.011,0.039-0.028,0.061-0.044
						c0.072-0.055,0.138-0.111,0.21-0.177c-0.111-0.061-0.254-0.133-0.426-0.205c-1.256-0.537-2.445-0.708-2.445-0.708
						s0.005,0.022,0.011,0.072C141.418,176.398,141.567,177.765,140.688,178.689z"/>
					<path style="fill:#263238;" d="M132.722,176.421c0.033,0.033,0.066,0.066,0.105,0.1c1.123,1.09,2.556,1.87,4.149,2.207
						c0.061,0.011,0.122,0.022,0.183,0.033c-0.1-0.072-0.194-0.155-0.288-0.238c-0.133-0.116-0.266-0.238-0.387-0.371
						c-0.16-0.16-0.31-0.332-0.453-0.503c-0.05-0.055-0.094-0.116-0.138-0.171c-0.089-0.111-0.177-0.227-0.255-0.332
						c-0.083-0.111-0.155-0.221-0.227-0.321c-0.072-0.105-0.138-0.205-0.193-0.293c-0.149-0.232-0.266-0.42-0.332-0.548
						c-0.061-0.1-0.088-0.155-0.088-0.155S133.762,176.072,132.722,176.421z"/>
					<path style="opacity:0.1;fill:#FFFFFF;enable-background:new    ;" d="M132.722,176.421c0.033,0.033,0.066,0.066,0.105,0.1
						c1.123,1.09,2.556,1.87,4.149,2.207c0.061,0.011,0.122,0.022,0.183,0.033c-0.1-0.072-0.194-0.155-0.288-0.238
						c-0.133-0.116-0.266-0.238-0.387-0.371c-0.16-0.16-0.31-0.332-0.453-0.503c-0.05-0.055-0.094-0.116-0.138-0.171
						c-0.089-0.111-0.177-0.227-0.255-0.332c-0.083-0.111-0.155-0.221-0.227-0.321c-0.072-0.105-0.138-0.205-0.193-0.293
						c-0.149-0.232-0.266-0.42-0.332-0.548c-0.061-0.1-0.088-0.155-0.088-0.155S133.762,176.072,132.722,176.421z"/>
				</g>
				<polygon style="opacity:0.6;fill:#FFFFFF;" points="137.001,174.91 138.751,176.629 138.051,178.736 135.616,176.055 				"/>
				<polygon style="opacity:0.6;fill:#FFFFFF;" points="139.532,175.269 139.249,176.593 140.156,178.464 140.721,176.033 				"/>
				<g style="opacity:0.1;enable-background:new    ;">
					<path style="fill:#FFFFFF;" d="M140.688,178.689c1.206-0.277,2.318-0.813,3.27-1.549c0.022-0.011,0.039-0.028,0.061-0.044
						c0.072-0.055,0.138-0.111,0.21-0.177c-0.111-0.061-0.254-0.133-0.426-0.205c-1.256-0.537-2.445-0.708-2.445-0.708
						s0.005,0.022,0.011,0.072C141.418,176.398,141.567,177.765,140.688,178.689z"/>
					<path style="fill:#FFFFFF;" d="M132.722,176.421c0.033,0.033,0.066,0.066,0.105,0.1c1.123,1.09,2.556,1.87,4.149,2.207
						c0.061,0.011,0.122,0.022,0.183,0.033c-0.1-0.072-0.194-0.155-0.288-0.238c-0.133-0.116-0.266-0.238-0.387-0.371
						c-0.16-0.16-0.31-0.332-0.453-0.503c-0.05-0.055-0.094-0.116-0.138-0.171c-0.089-0.111-0.177-0.227-0.255-0.332
						c-0.083-0.111-0.155-0.221-0.227-0.321c-0.072-0.105-0.138-0.205-0.193-0.293c-0.149-0.232-0.266-0.42-0.332-0.548
						c-0.061-0.1-0.088-0.155-0.088-0.155S133.762,176.072,132.722,176.421z"/>
				</g>
			</g>
		</g>
		<g>
			<path style="fill:#FFFFFF;" d="M271.3,203.355c0,2.64-1.19,5-3.07,6.56l-0.21,0.18c-0.02,0.01-0.04,0.03-0.06,0.04
				c-0.03,0.02-0.05,0.04-0.08,0.06c-0.93,0.71-2.02,1.22-3.19,1.49c-0.03,0-0.06,0.02-0.09,0.02c-0.21,0.05-0.43,0.08-0.64,0.11
				c-0.17,0.03-0.35,0.05-0.52,0.06c-0.16,0.01-0.33,0.02-0.49,0.02c-0.07,0.01-0.13,0.01-0.2,0.01c-0.23,0-0.46-0.01-0.68-0.03
				c-0.31-0.02-0.61-0.06-0.91-0.12l-0.18-0.03c-1.34-0.28-2.56-0.88-3.58-1.71c-0.2-0.15-0.39-0.32-0.57-0.5
				c-0.04-0.03-0.07-0.07-0.11-0.1c-1.56-1.55-2.52-3.69-2.52-6.06c0-4.73,3.83-8.55,8.55-8.55
				C267.48,194.805,271.3,198.625,271.3,203.355z"/>
			<g>
				<g>
					<rect x="260.306" y="207.174" style="fill:#263238;" width="4.768" height="2.636"/>
					<rect x="260.306" y="207.174" style="opacity:0.3;fill:#FFFFFF;" width="4.768" height="2.636"/>
					<rect x="260.306" y="208.085" style="opacity:0.2;enable-background:new    ;" width="4.768" height="0.131"/>
					<rect x="260.306" y="208.661" style="opacity:0.2;enable-background:new    ;" width="4.768" height="0.131"/>
					<rect x="260.306" y="209.235" style="opacity:0.2;enable-background:new    ;" width="4.768" height="0.131"/>
					<path style="opacity:0.2;enable-background:new    ;" d="M265.074,207.174v0.669c-1.214,0.435-3.221,1.05-4.768,0.995v-1.664
						H265.074z"/>
				</g>
				<g>
					<path style="fill:#407BFF;" d="M267.047,199.663h-3.28h-3.585h-1.476c-1.007,0-1.823,0.816-1.823,1.823v4.672
						c0,1.007,0.816,1.823,1.823,1.823h1.476h3.585h3.28c1.007,0,1.823-0.816,1.823-1.823v-4.672
						C268.871,200.479,268.054,199.663,267.047,199.663z"/>
					<path style="opacity:0.2;enable-background:new    ;" d="M267.047,199.664h-3.28c1.007,0,1.824,0.815,1.824,1.822v4.673
						c0,1.007-0.817,1.822-1.824,1.822h3.28c1.007,0,1.824-0.815,1.824-1.822v-4.673
						C268.871,200.479,268.054,199.664,267.047,199.664z"/>
					<path style="fill:#263238;" d="M263.668,200.468h-4.96c-0.616,0-1.115,0.499-1.115,1.115v4.477
						c0,0.616,0.499,1.115,1.115,1.115h4.96c0.616,0,1.115-0.499,1.115-1.115v-4.477
						C264.783,200.968,264.284,200.468,263.668,200.468z"/>
					<g>
						<path style="fill:#263238;" d="M267.806,202.912c-0.069,0-0.125-0.056-0.125-0.125v-5.432c0-0.069,0.056-0.125,0.125-0.125
							c0.069,0,0.125,0.056,0.125,0.125v5.432C267.931,202.856,267.875,202.912,267.806,202.912z"/>
					</g>
					<g>
						<path style="fill:#407BFF;" d="M269.293,203.822c0,0.3-0.062,0.581-0.172,0.828c-0.082,0.19-0.194,0.359-0.326,0.5
							c-0.262,0.282-0.609,0.451-0.989,0.451c-0.82,0-1.486-0.795-1.486-1.78c0-0.982,0.666-1.779,1.486-1.779
							c0.382,0,0.728,0.172,0.994,0.454c0.131,0.141,0.241,0.31,0.323,0.5C269.23,203.243,269.293,203.525,269.293,203.822z"/>
						<g style="opacity:0.4;">
							<path d="M268.32,205.099c-0.582,0-1.055-0.572-1.055-1.278c0-0.704,0.472-1.276,1.055-1.276c0.321,0,0.61,0.176,0.802,0.451
								c-0.082-0.19-0.192-0.359-0.323-0.5c-0.148-0.074-0.308-0.115-0.479-0.115c-0.672,0-1.219,0.646-1.219,1.44
								c0,0.796,0.546,1.442,1.219,1.442c0.169,0,0.328-0.039,0.474-0.113c0.133-0.141,0.244-0.31,0.326-0.5
								C268.928,204.925,268.641,205.099,268.32,205.099z"/>
						</g>
					</g>
					<path style="fill:#FFFFFF;" d="M262.877,202.79c0,0.288-0.129,0.522-0.288,0.522s-0.288-0.234-0.288-0.522
						c0-0.288,0.129-0.522,0.288-0.522S262.877,202.502,262.877,202.79z"/>
					<ellipse style="fill:#FFFFFF;" cx="259.479" cy="202.787" rx="0.288" ry="0.522"/>
					<g>
						<path style="opacity:0.4;fill:#FFFFFF;" d="M261.018,205.21c0.33,0.319,0.789,0.977,0.789,0.977
							c0.067-0.031,0.134-0.062,0.2-0.096c0.9-0.442,1.172-0.945,1.2-1.367c0.014-0.231-0.047-0.441-0.118-0.601
							c-0.08-0.186-0.18-0.301-0.18-0.301c-0.337,0.52-1.145,0.996-1.587,1.233C261.138,205.155,261.018,205.21,261.018,205.21z"/>
						<path style="fill:#FFFFFF;" d="M261.323,205.054l0.24,0.282c0.847-0.418,1.387-0.827,1.527-1.214
							c-0.08-0.186-0.18-0.301-0.18-0.301C262.572,204.341,261.765,204.818,261.323,205.054z"/>
						<path style="fill:#407BFF;" d="M262.007,206.091c0.9-0.442,1.172-0.945,1.2-1.367c-0.301,0.162-0.646,0.392-0.903,0.689
							C262.108,205.639,262.031,205.876,262.007,206.091z"/>
					</g>
				</g>
			</g>
			<path style="fill:#407BFF;" d="M267.88,210.195c-0.93,0.71-2.02,1.22-3.19,1.49c-0.03,0-0.06,0.02-0.09,0.02
				c-0.21,0.05-0.43,0.08-0.64,0.11c-0.17,0.03-0.35,0.05-0.52,0.06c-0.16,0.01-0.33,0.02-0.49,0.02c-0.07,0.01-0.13,0.01-0.2,0.01
				c-0.23,0-0.46-0.01-0.68-0.03c-0.31-0.02-0.61-0.06-0.91-0.12l-0.18-0.03c-1.34-0.28-2.56-0.88-3.58-1.71
				c0.39-0.3,0.88-0.48,1.41-0.48h7.47C266.9,209.535,267.46,209.785,267.88,210.195z"/>
		</g>
		<g>
			<path style="fill:#407BFF;" d="M176.305,225.66l65.981,0l4.827,3v-28.32c0-3.057-2.478-5.535-5.535-5.535l-65.274,0
				c-3.057,0-5.535,2.478-5.535,5.535v19.786C170.771,223.182,173.249,225.66,176.305,225.66z"/>
			<g>
				
					<line style="fill:none;stroke:#FFFFFF;stroke-linecap:round;stroke-linejoin:round;stroke-miterlimit:10;" x1="178.86" y1="202.141" x2="240.025" y2="202.141"/>
				
					<line style="fill:none;stroke:#FFFFFF;stroke-linecap:round;stroke-linejoin:round;stroke-miterlimit:10;" x1="178.86" y1="207.218" x2="240.025" y2="207.218"/>
				
					<line style="fill:none;stroke:#FFFFFF;stroke-linecap:round;stroke-linejoin:round;stroke-miterlimit:10;" x1="178.86" y1="212.295" x2="240.025" y2="212.295"/>
				
					<line style="fill:none;stroke:#FFFFFF;stroke-linecap:round;stroke-linejoin:round;stroke-miterlimit:10;" x1="178.86" y1="217.372" x2="210.025" y2="217.372"/>
			</g>
		</g>
		<g>
			<path style="opacity:0.2;enable-background:new    ;" d="M231.579,273.66h-74.981l-4.827,3v-33.32
				c0-3.057,2.478-5.535,5.535-5.535h74.274c3.057,0,5.535,2.478,5.535,5.535v24.785C237.114,271.182,234.636,273.66,231.579,273.66
				z"/>
			<g>
				
					<line style="fill:none;stroke:#FFFFFF;stroke-linecap:round;stroke-linejoin:round;stroke-miterlimit:10;" x1="158.86" y1="245.141" x2="230.025" y2="245.141"/>
				
					<line style="fill:none;stroke:#FFFFFF;stroke-linecap:round;stroke-linejoin:round;stroke-miterlimit:10;" x1="158.86" y1="250.218" x2="230.025" y2="250.218"/>
				
					<line style="fill:none;stroke:#FFFFFF;stroke-linecap:round;stroke-linejoin:round;stroke-miterlimit:10;" x1="158.86" y1="255.295" x2="230.025" y2="255.295"/>
				
					<line style="fill:none;stroke:#FFFFFF;stroke-linecap:round;stroke-linejoin:round;stroke-miterlimit:10;" x1="158.86" y1="265.449" x2="190.025" y2="265.449"/>
				
					<line style="fill:none;stroke:#FFFFFF;stroke-linecap:round;stroke-linejoin:round;stroke-miterlimit:10;" x1="158.86" y1="260.372" x2="230.025" y2="260.372"/>
			</g>
		</g>
		<g>
			<path style="fill:#407BFF;" d="M130.199,246.358c0,2.368,0.963,4.514,2.523,6.063c0.033,0.033,0.066,0.066,0.105,0.1
				c1.123,1.09,2.556,1.87,4.149,2.207c0.061,0.011,0.122,0.022,0.183,0.033c0.299,0.055,0.603,0.1,0.907,0.122
				c0.227,0.017,0.454,0.028,0.686,0.028c0.066,0,0.127,0,0.194-0.005c0.166,0,0.332-0.011,0.498-0.022
				c0.172-0.011,0.343-0.033,0.515-0.061c0.216-0.028,0.431-0.066,0.647-0.116c0.028,0,0.055-0.011,0.083-0.017
				c1.206-0.277,2.318-0.813,3.27-1.549c0.022-0.011,0.039-0.028,0.061-0.044c0.072-0.055,0.138-0.111,0.21-0.177
				c1.881-1.56,3.076-3.922,3.076-6.561c0-4.724-3.828-8.552-8.552-8.552C134.027,237.805,130.199,241.633,130.199,246.358z"/>
			<g>
				<path style="fill:#263238;" d="M133.809,244.656c0,0-1.049,3.961,0.291,5.18c1.34,1.219,8.857,1.193,9.939-0.299
					c1.083-1.492-1.371-6.374-1.371-6.374L133.809,244.656z"/>
				<path style="fill:#407BFF;" d="M132.827,252.52c1.123,1.09,2.556,1.87,4.149,2.207c0.061,0.011,0.122,0.022,0.183,0.033
					c0.299,0.055,0.603,0.1,0.907,0.122c0.227,0.017,0.454,0.028,0.686,0.028c0.066,0,0.127,0,0.194-0.005
					c0.166,0,0.332-0.011,0.498-0.022c0.172-0.011,0.343-0.033,0.515-0.061c0.216-0.028,0.431-0.066,0.647-0.116v0.061
					c0.028-0.022,0.055-0.05,0.083-0.077c1.206-0.277,2.318-0.813,3.27-1.549c-0.044-0.144-0.1-0.288-0.155-0.426l-0.028-0.011
					l-0.039-0.011l-0.066-0.022c-0.194-0.061-0.592-0.188-1.14-0.326l-0.055-0.011c-0.321-0.083-0.691-0.172-1.106-0.255
					c-0.254-0.05-0.52-0.1-0.802-0.144c-0.033-0.006-0.072-0.017-0.111-0.017c-0.005,0-0.005,0-0.005,0
					c-0.238-0.044-0.487-0.077-0.747-0.111c-0.094-0.011-0.188-0.022-0.282-0.028c-0.393-0.05-0.797-0.083-1.217-0.105
					c-0.144-0.005-0.288-0.011-0.437-0.011c-0.183,0-0.371,0.006-0.564,0.017c-0.238,0.005-0.476,0.028-0.714,0.055
					c-0.194,0.017-0.382,0.044-0.57,0.072h-0.006c-0.354,0.05-0.697,0.111-1.029,0.177
					C134.116,252.144,133.402,252.343,132.827,252.52z"/>
				<path style="opacity:0.6;fill:#FFFFFF;" d="M132.827,252.52c1.123,1.09,2.556,1.87,4.149,2.207
					c0.061,0.011,0.122,0.022,0.183,0.033c0.299,0.055,0.603,0.1,0.907,0.122c0.227,0.017,0.454,0.028,0.686,0.028
					c0.066,0,0.127,0,0.194-0.005c0.166,0,0.332-0.011,0.498-0.022c0.172-0.011,0.343-0.033,0.515-0.061
					c0.216-0.028,0.431-0.066,0.647-0.116v0.061c0.028-0.022,0.055-0.05,0.083-0.077c1.206-0.277,2.318-0.813,3.27-1.549
					c-0.044-0.144-0.1-0.288-0.155-0.426l-0.028-0.011l-0.039-0.011l-0.066-0.022c-0.194-0.061-0.592-0.188-1.14-0.326l-0.055-0.011
					c-0.321-0.083-0.691-0.172-1.106-0.255c-0.254-0.05-0.52-0.1-0.802-0.144c-0.033-0.006-0.072-0.017-0.111-0.017
					c-0.005,0-0.005,0-0.005,0c-0.238-0.044-0.487-0.077-0.747-0.111c-0.094-0.011-0.188-0.022-0.282-0.028
					c-0.393-0.05-0.797-0.083-1.217-0.105c-0.144-0.005-0.288-0.011-0.437-0.011c-0.183,0-0.371,0.006-0.564,0.017
					c-0.238,0.005-0.476,0.028-0.714,0.055c-0.194,0.017-0.382,0.044-0.57,0.072h-0.006c-0.354,0.05-0.697,0.111-1.029,0.177
					C134.116,252.144,133.402,252.343,132.827,252.52z"/>
				<path style="fill:#263238;" d="M142.935,244.395c0,0,0.444-6.475-5.257-4.977c-7.155,1.88-3.024,10.487,0.498,9.394
					C141.698,247.72,142.935,244.395,142.935,244.395z"/>
				<path style="opacity:0.2;enable-background:new    ;" d="M135.615,252.055l1.256,2.467l0.105,0.205
					c0.061,0.011,0.122,0.022,0.183,0.033c0.299,0.055,0.603,0.1,0.907,0.122l0.686-0.913c0.072,0.288,0.133,0.603,0.194,0.935
					c0.166,0,0.332-0.011,0.498-0.022c-0.05-0.559-0.088-0.913-0.088-0.913l0.603,0.852c0.216-0.028,0.431-0.066,0.647-0.116
					l0.116-2.672c-0.089-0.044-0.177-0.083-0.266-0.116c-0.005,0-0.005,0-0.005,0c-0.266-0.111-0.542-0.188-0.819-0.243
					c-0.061-0.011-0.122-0.022-0.183-0.028c-0.592-0.094-1.189-0.089-1.731-0.033c-0.177,0.017-0.354,0.039-0.514,0.066
					c-0.321,0.044-0.609,0.105-0.846,0.166h-0.005c-0.398,0.099-0.664,0.182-0.725,0.205L135.615,252.055z"/>
				<path style="fill:#B97964;" d="M139.046,252.712l-2.795-0.79c1.722-1.186,0.854-3.836,0.854-3.836l2.769,0.973
					c-0.148,0.46-0.241,0.85-0.297,1.183c-0.289,1.727,0.491,1.865,0.491,1.865L139.046,252.712z"/>
				<path style="opacity:0.2;enable-background:new    ;" d="M139.874,249.061c-0.148,0.46-0.241,0.85-0.297,1.183
					c-1.325-0.531-2.472-2.156-2.472-2.156L139.874,249.061z"/>
				<g>
					<path style="fill:#B97964;" d="M139.235,241.032c2.506-0.163,3.4,1.127,3.751,3.698c0.439,3.213-0.128,5.552-3.307,5.066
						C135.363,249.136,135.073,241.302,139.235,241.032z"/>
					<path style="fill:#A24E3F;" d="M141.357,244.695c0,0,0.39,0.632,0.797,0.992c0,0-0.192,0.355-0.642,0.326L141.357,244.695z"/>
					<g>
						<path style="fill:#263238;" d="M139.81,244.589c0.018,0.206-0.078,0.382-0.215,0.394c-0.137,0.012-0.263-0.145-0.281-0.35
							c-0.018-0.206,0.078-0.382,0.215-0.394C139.666,244.227,139.792,244.384,139.81,244.589z"/>
						<path style="fill:#263238;" d="M139.472,244.254l0.432-0.215C139.904,244.039,139.715,244.435,139.472,244.254z"/>
					</g>
					<g>
						<path style="fill:#263238;" d="M142.361,244.321c0.018,0.206-0.078,0.382-0.215,0.394c-0.137,0.012-0.263-0.145-0.281-0.35
							c-0.018-0.205,0.078-0.382,0.215-0.394C142.217,243.958,142.343,244.115,142.361,244.321z"/>
						<path style="fill:#263238;" d="M142.024,243.986l0.432-0.215C142.456,243.771,142.266,244.167,142.024,243.986z"/>
					</g>
					
						<path style="fill:none;stroke:#263238;stroke-width:0.7247;stroke-linecap:round;stroke-linejoin:round;stroke-miterlimit:10;" d="
						M139.672,242.86c0,0-0.71-0.046-1.062,0.449"/>
					
						<path style="fill:none;stroke:#263238;stroke-width:0.7247;stroke-linecap:round;stroke-linejoin:round;stroke-miterlimit:10;" d="
						M141.487,242.636c0,0,0.432-0.193,1.012,0.141"/>
					<path style="fill:#263238;" d="M136.77,245.434c0,0,1.038-2.135,0.758-3.714c0,0,4.835-2.351,5.407,2.674
						c0,0,0.195-4.508-4.12-4.328c-4.308,0.179-3.888,6.482-1.541,8.215C137.274,248.282,136.128,246.768,136.77,245.434z"/>
					<path style="fill:#B97964;" d="M137.214,245.936c-0.043-0.402-0.504-1.059-1.249-0.928c-0.771,0.135-1.038,1.754,0.919,2.012
						C137.164,247.057,137.303,246.776,137.214,245.936z"/>
					<g>
						<path style="fill:#263238;" d="M141.803,247.001c-0.135,0.307-0.264,0.881-0.264,0.881c-0.054-0.002-0.108-0.005-0.162-0.01
							c-0.733-0.05-1.057-0.316-1.193-0.595c-0.074-0.153-0.09-0.312-0.087-0.44c0.003-0.148,0.039-0.254,0.039-0.254
							c0.373,0.259,1.052,0.358,1.418,0.396C141.706,246.997,141.803,247.001,141.803,247.001z"/>
						<path style="fill:#FFFFFF;" d="M141.553,246.98l-0.085,0.258c-0.69-0.049-1.17-0.176-1.372-0.4
							c0.003-0.148,0.039-0.254,0.039-0.254C140.508,246.843,141.188,246.942,141.553,246.98z"/>
						<path style="fill:#DE5753;" d="M141.376,247.872c-0.733-0.05-1.057-0.316-1.193-0.595c0.249,0.027,0.547,0.087,0.803,0.217
							C141.183,247.594,141.301,247.734,141.376,247.872z"/>
					</g>
					<path style="fill:#263238;" d="M139.196,241.224c0,0-0.742,4.189-3.342,4.305c-2.6,0.115,1.069-5.366,1.069-5.366
						s4.134-1.874,6.371,0.241c2.237,2.115-0.358,3.99-0.358,3.99S142.888,241.191,139.196,241.224z"/>
					
						<path style="fill:none;stroke:#263238;stroke-width:0.5;stroke-linecap:round;stroke-linejoin:round;stroke-miterlimit:10;" d="
						M139.152,240.933c0,0,0.489,2.796-1.502,3.917"/>
					<g>
						<path style="fill:#263238;" d="M136.4,245.118c0,0.033,0.028,0.061,0.061,0.066h0.017l0.232-0.022h0.006l0.182-0.017
							l0.155-0.011h0.005l1.842-0.166c0.089,0.476,0.465,0.868,0.968,0.946c0.636,0.094,1.234-0.343,1.328-0.979
							c0.011-0.061,0.011-0.122,0.011-0.183c0.089-0.127,0.177-0.194,0.254-0.194c0.1,0.006,0.166,0.1,0.166,0.105
							c0.077,0.387,0.343,0.714,0.714,0.863c0.077,0.033,0.166,0.055,0.255,0.072c0.166,0.028,0.332,0.017,0.481-0.028
							c0.193-0.05,0.365-0.149,0.503-0.288c0.183-0.171,0.304-0.398,0.343-0.664c0.055-0.354-0.055-0.703-0.277-0.952
							c-0.177-0.199-0.415-0.337-0.697-0.382c-0.017-0.006-0.033-0.006-0.05-0.006c-0.022-0.005-0.044-0.005-0.066,0
							c-0.039-0.005-0.077-0.005-0.111,0c-0.006-0.005-0.011-0.005-0.017,0c-0.005-0.005-0.016,0-0.022,0
							c-0.531,0.039-0.985,0.437-1.068,0.985c-0.011,0.061-0.011,0.122-0.011,0.188c-0.039-0.022-0.083-0.044-0.138-0.044
							c-0.094,0-0.188,0.05-0.277,0.138c-0.089-0.476-0.465-0.868-0.968-0.946c-0.039-0.006-0.077-0.011-0.116-0.006h-0.006
							c-0.171-0.017-0.332,0.017-0.481,0.077l-0.006,0.006h-0.006c-0.371,0.149-0.653,0.481-0.719,0.902
							c-0.011,0.083-0.017,0.16-0.011,0.243l-1.593,0.138l-0.321,0.028l-0.498,0.044c-0.006,0-0.011,0.005-0.011,0.005
							C136.417,245.046,136.395,245.08,136.4,245.118z M141.761,244.289c0.077-0.492,0.487-0.846,0.968-0.857
							c0.006-0.005,0.006-0.005,0.011-0.005c0.006,0,0.006,0,0.011,0h0.044c0.022,0,0.039,0,0.061,0.005
							c0.022,0,0.039,0,0.061,0.006c0.006,0,0.006,0,0.011,0c0.249,0.039,0.47,0.166,0.625,0.349
							c0.182,0.221,0.277,0.514,0.227,0.813c-0.033,0.205-0.122,0.387-0.26,0.531c-0.116,0.138-0.277,0.238-0.454,0.288
							c-0.144,0.044-0.293,0.055-0.448,0.033c-0.072-0.011-0.138-0.028-0.199-0.05C141.971,245.235,141.689,244.775,141.761,244.289
							z M139.039,244.604c0.083-0.559,0.603-0.941,1.162-0.852c0.559,0.083,0.94,0.608,0.852,1.162
							c-0.083,0.559-0.609,0.94-1.162,0.852C139.332,245.683,138.951,245.157,139.039,244.604z"/>
					</g>
					<g style="opacity:0.8;enable-background:new    ;">
						<path style="fill:#FFFFFF;" d="M136.4,245.118c0,0.033,0.028,0.061,0.061,0.066h0.017l0.232-0.022h0.006l0.182-0.017
							l0.155-0.011h0.005l1.842-0.166c0.089,0.476,0.465,0.868,0.968,0.946c0.636,0.094,1.234-0.343,1.328-0.979
							c0.011-0.061,0.011-0.122,0.011-0.183c0.089-0.127,0.177-0.194,0.254-0.194c0.1,0.006,0.166,0.1,0.166,0.105
							c0.077,0.387,0.343,0.714,0.714,0.863c0.077,0.033,0.166,0.055,0.255,0.072c0.166,0.028,0.332,0.017,0.481-0.028
							c0.193-0.05,0.365-0.149,0.503-0.288c0.183-0.171,0.304-0.398,0.343-0.664c0.055-0.354-0.055-0.703-0.277-0.952
							c-0.177-0.199-0.415-0.337-0.697-0.382c-0.017-0.006-0.033-0.006-0.05-0.006c-0.022-0.005-0.044-0.005-0.066,0
							c-0.039-0.005-0.077-0.005-0.111,0c-0.006-0.005-0.011-0.005-0.017,0c-0.005-0.005-0.016,0-0.022,0
							c-0.531,0.039-0.985,0.437-1.068,0.985c-0.011,0.061-0.011,0.122-0.011,0.188c-0.039-0.022-0.083-0.044-0.138-0.044
							c-0.094,0-0.188,0.05-0.277,0.138c-0.089-0.476-0.465-0.868-0.968-0.946c-0.039-0.006-0.077-0.011-0.116-0.006h-0.006
							c-0.171-0.017-0.332,0.017-0.481,0.077l-0.006,0.006h-0.006c-0.371,0.149-0.653,0.481-0.719,0.902
							c-0.011,0.083-0.017,0.16-0.011,0.243l-1.593,0.138l-0.321,0.028l-0.498,0.044c-0.006,0-0.011,0.005-0.011,0.005
							C136.417,245.046,136.395,245.08,136.4,245.118z M141.761,244.289c0.077-0.492,0.487-0.846,0.968-0.857
							c0.006-0.005,0.006-0.005,0.011-0.005c0.006,0,0.006,0,0.011,0h0.044c0.022,0,0.039,0,0.061,0.005
							c0.022,0,0.039,0,0.061,0.006c0.006,0,0.006,0,0.011,0c0.249,0.039,0.47,0.166,0.625,0.349
							c0.182,0.221,0.277,0.514,0.227,0.813c-0.033,0.205-0.122,0.387-0.26,0.531c-0.116,0.138-0.277,0.238-0.454,0.288
							c-0.144,0.044-0.293,0.055-0.448,0.033c-0.072-0.011-0.138-0.028-0.199-0.05C141.971,245.235,141.689,244.775,141.761,244.289
							z M139.039,244.604c0.083-0.559,0.603-0.941,1.162-0.852c0.559,0.083,0.94,0.608,0.852,1.162
							c-0.083,0.559-0.609,0.94-1.162,0.852C139.332,245.683,138.951,245.157,139.039,244.604z"/>
					</g>
				</g>
				<polygon style="fill:#407BFF;" points="137.001,250.91 138.751,252.629 138.051,254.736 135.616,252.055 				"/>
				<polygon style="fill:#407BFF;" points="139.532,251.269 139.249,252.593 140.156,254.464 140.721,252.033 				"/>
				<g>
					<path style="fill:#263238;" d="M140.688,254.689c1.206-0.277,2.318-0.813,3.27-1.549c0.022-0.011,0.039-0.028,0.061-0.044
						c0.072-0.055,0.138-0.111,0.21-0.177c-0.111-0.061-0.254-0.133-0.426-0.205c-1.256-0.537-2.445-0.708-2.445-0.708
						s0.005,0.022,0.011,0.072C141.418,252.398,141.567,253.765,140.688,254.689z"/>
					<path style="fill:#263238;" d="M132.722,252.421c0.033,0.033,0.066,0.066,0.105,0.1c1.123,1.09,2.556,1.87,4.149,2.207
						c0.061,0.011,0.122,0.022,0.183,0.033c-0.1-0.072-0.194-0.155-0.288-0.238c-0.133-0.116-0.266-0.238-0.387-0.371
						c-0.16-0.16-0.31-0.332-0.453-0.503c-0.05-0.055-0.094-0.116-0.138-0.171c-0.089-0.111-0.177-0.227-0.255-0.332
						c-0.083-0.111-0.155-0.221-0.227-0.321c-0.072-0.105-0.138-0.205-0.193-0.293c-0.149-0.232-0.266-0.42-0.332-0.548
						c-0.061-0.1-0.088-0.155-0.088-0.155S133.762,252.072,132.722,252.421z"/>
					<path style="opacity:0.1;fill:#FFFFFF;enable-background:new    ;" d="M132.722,252.421c0.033,0.033,0.066,0.066,0.105,0.1
						c1.123,1.09,2.556,1.87,4.149,2.207c0.061,0.011,0.122,0.022,0.183,0.033c-0.1-0.072-0.194-0.155-0.288-0.238
						c-0.133-0.116-0.266-0.238-0.387-0.371c-0.16-0.16-0.31-0.332-0.453-0.503c-0.05-0.055-0.094-0.116-0.138-0.171
						c-0.089-0.111-0.177-0.227-0.255-0.332c-0.083-0.111-0.155-0.221-0.227-0.321c-0.072-0.105-0.138-0.205-0.193-0.293
						c-0.149-0.232-0.266-0.42-0.332-0.548c-0.061-0.1-0.088-0.155-0.088-0.155S133.762,252.072,132.722,252.421z"/>
				</g>
				<polygon style="opacity:0.6;fill:#FFFFFF;" points="137.001,250.91 138.751,252.629 138.051,254.736 135.616,252.055 				"/>
				<polygon style="opacity:0.6;fill:#FFFFFF;" points="139.532,251.269 139.249,252.593 140.156,254.464 140.721,252.033 				"/>
				<g style="opacity:0.1;enable-background:new    ;">
					<path style="fill:#FFFFFF;" d="M140.688,254.689c1.206-0.277,2.318-0.813,3.27-1.549c0.022-0.011,0.039-0.028,0.061-0.044
						c0.072-0.055,0.138-0.111,0.21-0.177c-0.111-0.061-0.254-0.133-0.426-0.205c-1.256-0.537-2.445-0.708-2.445-0.708
						s0.005,0.022,0.011,0.072C141.418,252.398,141.567,253.765,140.688,254.689z"/>
					<path style="fill:#FFFFFF;" d="M132.722,252.421c0.033,0.033,0.066,0.066,0.105,0.1c1.123,1.09,2.556,1.87,4.149,2.207
						c0.061,0.011,0.122,0.022,0.183,0.033c-0.1-0.072-0.194-0.155-0.288-0.238c-0.133-0.116-0.266-0.238-0.387-0.371
						c-0.16-0.16-0.31-0.332-0.453-0.503c-0.05-0.055-0.094-0.116-0.138-0.171c-0.089-0.111-0.177-0.227-0.255-0.332
						c-0.083-0.111-0.155-0.221-0.227-0.321c-0.072-0.105-0.138-0.205-0.193-0.293c-0.149-0.232-0.266-0.42-0.332-0.548
						c-0.061-0.1-0.088-0.155-0.088-0.155S133.762,252.072,132.722,252.421z"/>
				</g>
			</g>
		</g>
		<g>
			<path style="fill:#FFFFFF;" d="M271.3,293.355c0,2.64-1.19,5-3.07,6.56l-0.21,0.18c-0.02,0.01-0.04,0.03-0.06,0.04
				c-0.03,0.02-0.05,0.04-0.08,0.06c-0.93,0.71-2.02,1.22-3.19,1.49c-0.03,0-0.06,0.02-0.09,0.02c-0.21,0.05-0.43,0.08-0.64,0.11
				c-0.17,0.03-0.35,0.05-0.52,0.06c-0.16,0.01-0.33,0.02-0.49,0.02c-0.07,0.01-0.13,0.01-0.2,0.01c-0.23,0-0.46-0.01-0.68-0.03
				c-0.31-0.02-0.61-0.06-0.91-0.12l-0.18-0.03c-1.34-0.28-2.56-0.88-3.58-1.71c-0.2-0.15-0.39-0.32-0.57-0.5
				c-0.04-0.03-0.07-0.07-0.11-0.1c-1.56-1.55-2.52-3.69-2.52-6.06c0-4.73,3.83-8.55,8.55-8.55
				C267.48,284.805,271.3,288.625,271.3,293.355z"/>
			<g>
				<g>
					<rect x="260.306" y="297.174" style="fill:#263238;" width="4.768" height="2.636"/>
					<rect x="260.306" y="297.174" style="opacity:0.3;fill:#FFFFFF;" width="4.768" height="2.636"/>
					<rect x="260.306" y="298.085" style="opacity:0.2;enable-background:new    ;" width="4.768" height="0.131"/>
					<rect x="260.306" y="298.661" style="opacity:0.2;enable-background:new    ;" width="4.768" height="0.131"/>
					<rect x="260.306" y="299.235" style="opacity:0.2;enable-background:new    ;" width="4.768" height="0.131"/>
					<path style="opacity:0.2;enable-background:new    ;" d="M265.074,297.174v0.669c-1.214,0.435-3.221,1.05-4.768,0.995v-1.664
						H265.074z"/>
				</g>
				<g>
					<path style="fill:#407BFF;" d="M267.047,289.663h-3.28h-3.585h-1.476c-1.007,0-1.823,0.816-1.823,1.823v4.672
						c0,1.007,0.816,1.823,1.823,1.823h1.476h3.585h3.28c1.007,0,1.823-0.816,1.823-1.823v-4.672
						C268.871,290.479,268.054,289.663,267.047,289.663z"/>
					<path style="opacity:0.2;enable-background:new    ;" d="M267.047,289.664h-3.28c1.007,0,1.824,0.815,1.824,1.822v4.673
						c0,1.007-0.817,1.822-1.824,1.822h3.28c1.007,0,1.824-0.815,1.824-1.822v-4.673
						C268.871,290.479,268.054,289.664,267.047,289.664z"/>
					<path style="fill:#263238;" d="M263.668,290.468h-4.96c-0.616,0-1.115,0.499-1.115,1.115v4.477
						c0,0.616,0.499,1.115,1.115,1.115h4.96c0.616,0,1.115-0.499,1.115-1.115v-4.477
						C264.783,290.968,264.284,290.468,263.668,290.468z"/>
					<g>
						<path style="fill:#263238;" d="M267.806,292.912c-0.069,0-0.125-0.056-0.125-0.125v-5.432c0-0.069,0.056-0.125,0.125-0.125
							c0.069,0,0.125,0.056,0.125,0.125v5.432C267.931,292.856,267.875,292.912,267.806,292.912z"/>
					</g>
					<g>
						<path style="fill:#407BFF;" d="M269.293,293.822c0,0.3-0.062,0.581-0.172,0.828c-0.082,0.19-0.194,0.359-0.326,0.5
							c-0.262,0.282-0.609,0.451-0.989,0.451c-0.82,0-1.486-0.795-1.486-1.78c0-0.982,0.666-1.779,1.486-1.779
							c0.382,0,0.728,0.172,0.994,0.454c0.131,0.141,0.241,0.31,0.323,0.5C269.23,293.243,269.293,293.525,269.293,293.822z"/>
						<g style="opacity:0.4;">
							<path d="M268.32,295.099c-0.582,0-1.055-0.572-1.055-1.278c0-0.704,0.472-1.276,1.055-1.276c0.321,0,0.61,0.176,0.802,0.451
								c-0.082-0.19-0.192-0.359-0.323-0.5c-0.148-0.074-0.308-0.115-0.479-0.115c-0.672,0-1.219,0.646-1.219,1.44
								c0,0.796,0.546,1.442,1.219,1.442c0.169,0,0.328-0.039,0.474-0.113c0.133-0.141,0.244-0.31,0.326-0.5
								C268.928,294.925,268.641,295.099,268.32,295.099z"/>
						</g>
					</g>
					<path style="fill:#FFFFFF;" d="M262.877,292.79c0,0.288-0.129,0.522-0.288,0.522s-0.288-0.234-0.288-0.522
						c0-0.288,0.129-0.522,0.288-0.522S262.877,292.502,262.877,292.79z"/>
					<ellipse style="fill:#FFFFFF;" cx="259.479" cy="292.787" rx="0.288" ry="0.522"/>
					<g>
						<path style="opacity:0.4;fill:#FFFFFF;" d="M261.018,295.21c0.33,0.319,0.789,0.977,0.789,0.977
							c0.067-0.031,0.134-0.062,0.2-0.096c0.9-0.442,1.172-0.944,1.2-1.367c0.014-0.231-0.047-0.441-0.118-0.601
							c-0.08-0.186-0.18-0.301-0.18-0.301c-0.337,0.52-1.145,0.996-1.587,1.233C261.138,295.155,261.018,295.21,261.018,295.21z"/>
						<path style="fill:#FFFFFF;" d="M261.323,295.054l0.24,0.282c0.847-0.418,1.387-0.827,1.527-1.214
							c-0.08-0.186-0.18-0.301-0.18-0.301C262.572,294.341,261.765,294.818,261.323,295.054z"/>
						<path style="fill:#407BFF;" d="M262.007,296.091c0.9-0.442,1.172-0.944,1.2-1.367c-0.301,0.162-0.646,0.392-0.903,0.689
							C262.108,295.638,262.031,295.876,262.007,296.091z"/>
					</g>
				</g>
			</g>
			<path style="fill:#407BFF;" d="M267.88,300.195c-0.93,0.71-2.02,1.22-3.19,1.49c-0.03,0-0.06,0.02-0.09,0.02
				c-0.21,0.05-0.43,0.08-0.64,0.11c-0.17,0.03-0.35,0.05-0.52,0.06c-0.16,0.01-0.33,0.02-0.49,0.02c-0.07,0.01-0.13,0.01-0.2,0.01
				c-0.23,0-0.46-0.01-0.68-0.03c-0.31-0.02-0.61-0.06-0.91-0.12l-0.18-0.03c-1.34-0.28-2.56-0.88-3.58-1.71
				c0.39-0.3,0.88-0.48,1.41-0.48h7.47C266.9,299.535,267.46,299.785,267.88,300.195z"/>
		</g>
		<g>
			<path style="fill:#407BFF;" d="M157.305,325.66l84.981,0l4.827,3v-38.32c0-3.057-2.478-5.535-5.535-5.535l-84.274,0
				c-3.057,0-5.535,2.478-5.535,5.535v29.785C151.771,323.182,154.249,325.66,157.305,325.66z"/>
			<g>
				
					<line style="fill:none;stroke:#FFFFFF;stroke-linecap:round;stroke-linejoin:round;stroke-miterlimit:10;" x1="158.86" y1="292.141" x2="240.025" y2="292.141"/>
				
					<line style="fill:none;stroke:#FFFFFF;stroke-linecap:round;stroke-linejoin:round;stroke-miterlimit:10;" x1="158.86" y1="297.218" x2="240.025" y2="297.218"/>
				
					<line style="fill:none;stroke:#FFFFFF;stroke-linecap:round;stroke-linejoin:round;stroke-miterlimit:10;" x1="158.86" y1="302.295" x2="240.025" y2="302.295"/>
				
					<line style="fill:none;stroke:#FFFFFF;stroke-linecap:round;stroke-linejoin:round;stroke-miterlimit:10;" x1="158.86" y1="312.449" x2="240.025" y2="312.449"/>
				
					<line style="fill:none;stroke:#FFFFFF;stroke-linecap:round;stroke-linejoin:round;stroke-miterlimit:10;" x1="158.86" y1="317.526" x2="191.025" y2="317.526"/>
				
					<line style="fill:none;stroke:#FFFFFF;stroke-linecap:round;stroke-linejoin:round;stroke-miterlimit:10;" x1="158.86" y1="307.372" x2="240.025" y2="307.372"/>
			</g>
		</g>
	</g>
</g>
<g id="Speech_Bubble">
	<g>
		<g>
			<path style="fill:#407BFF;" d="M384.494,177.5h-77.962c-3.272,0-5.924,2.652-5.924,5.924v22.874c0,3.272,2.652,5.924,5.924,5.924
				h35.356l5.422,11.154v-11.154h37.184c3.272,0,5.924-2.652,5.924-5.924v-22.874C390.418,180.152,387.766,177.5,384.494,177.5z"/>
		</g>
		<g>
			<path style="fill:#FFFFFF;" d="M320.356,189.987v8.395h-1.2v-3.742h-4.821v3.742h-1.199v-8.395h1.199v3.61h4.821v-3.61H320.356z"
				/>
			<path style="fill:#FFFFFF;" d="M328.434,195.588h-5.157c0.143,1.115,1.043,1.859,2.303,1.859c0.743,0,1.367-0.252,1.835-0.768
				l0.636,0.744c-0.576,0.672-1.452,1.031-2.507,1.031c-2.051,0-3.418-1.355-3.418-3.25c0-1.883,1.355-3.238,3.19-3.238
				c1.835,0,3.143,1.319,3.143,3.274C328.457,195.336,328.445,195.48,328.434,195.588z M323.276,194.761h4.078
				c-0.12-1.067-0.923-1.823-2.039-1.823C324.212,192.938,323.396,193.681,323.276,194.761z"/>
			<path style="fill:#FFFFFF;" d="M330.056,189.484h1.151v8.899h-1.151V189.484z"/>
			<path style="fill:#FFFFFF;" d="M333.404,189.484h1.151v8.899h-1.151V189.484z"/>
			<path style="fill:#FFFFFF;" d="M336.165,195.205c0-1.895,1.403-3.238,3.31-3.238c1.907,0,3.298,1.343,3.298,3.238
				c0,1.895-1.392,3.25-3.298,3.25C337.567,198.455,336.165,197.1,336.165,195.205z M341.609,195.205
				c0-1.355-0.912-2.231-2.135-2.231c-1.224,0-2.147,0.876-2.147,2.231s0.923,2.243,2.147,2.243
				C340.698,197.447,341.609,196.56,341.609,195.205z"/>
			<path style="fill:#FFFFFF;" d="M351.174,198.011c-0.348,0.3-0.875,0.443-1.391,0.443c-1.284,0-2.015-0.708-2.015-1.991v-3.49
				h-1.08v-0.947h1.08v-1.391h1.151v1.391h1.823v0.947h-1.823v3.442c0,0.684,0.36,1.067,0.996,1.067c0.336,0,0.66-0.108,0.9-0.3
				L351.174,198.011z"/>
			<path style="fill:#FFFFFF;" d="M358.601,194.725v3.658h-1.151v-3.526c0-1.247-0.623-1.859-1.715-1.859
				c-1.224,0-2.015,0.732-2.015,2.111v3.274h-1.151v-8.899h1.151v3.442c0.48-0.612,1.271-0.96,2.243-0.96
				C357.509,191.966,358.601,192.854,358.601,194.725z"/>
			<path style="fill:#FFFFFF;" d="M366.497,195.588h-5.157c0.144,1.115,1.043,1.859,2.303,1.859c0.743,0,1.367-0.252,1.835-0.768
				l0.636,0.744c-0.576,0.672-1.452,1.031-2.507,1.031c-2.051,0-3.418-1.355-3.418-3.25c0-1.883,1.355-3.238,3.19-3.238
				c1.835,0,3.143,1.319,3.143,3.274C366.521,195.336,366.509,195.48,366.497,195.588z M361.34,194.761h4.078
				c-0.12-1.067-0.923-1.823-2.039-1.823C362.275,192.938,361.46,193.681,361.34,194.761z"/>
			<path style="fill:#FFFFFF;" d="M371.538,191.966v1.115c-0.096-0.012-0.18-0.012-0.264-0.012c-1.235,0-2.003,0.755-2.003,2.146
				v3.167h-1.151v-6.356h1.104v1.067C369.631,192.35,370.422,191.966,371.538,191.966z"/>
			<path style="fill:#FFFFFF;" d="M378.616,195.588h-5.157c0.143,1.115,1.043,1.859,2.303,1.859c0.744,0,1.367-0.252,1.835-0.768
				l0.635,0.744c-0.575,0.672-1.451,1.031-2.506,1.031c-2.051,0-3.418-1.355-3.418-3.25c0-1.883,1.355-3.238,3.19-3.238
				c1.835,0,3.143,1.319,3.143,3.274C378.641,195.336,378.628,195.48,378.616,195.588z M373.46,194.761h4.078
				c-0.12-1.067-0.923-1.823-2.039-1.823C374.395,192.938,373.579,193.681,373.46,194.761z"/>
		</g>
	</g>
</g>
<g id="Character">
	<g>
		<g>
			<path style="fill:#263238;" d="M352.467,296.36h-8.499c0,0-11.193,19.092-20.923,17.958
				c-7.681-0.895-11.833-14.917-11.833-14.917l-5.283,0.298c0,0,2.726,18.178,15.514,21.36
				C338.714,325.356,352.467,296.36,352.467,296.36z"/>
			<path style="opacity:0.2;fill:#FFFFFF;" d="M352.47,296.36c0,0-1.56,3.29-4.3,7.49c-0.15,0.24-0.3,0.47-0.46,0.71
				c-0.91,1.37-1.95,2.82-3.08,4.27c-0.18,0.23-0.35,0.45-0.53,0.67c-1.12,1.39-2.33,2.78-3.63,4.08c-0.2,0.2-0.4,0.4-0.61,0.6
				c-1.35,1.3-2.78,2.51-4.28,3.56c-0.23,0.16-0.47,0.32-0.71,0.48c-1.25,0.81-2.55,1.51-3.89,2.05c-0.27,0.1-0.53,0.2-0.8,0.29
				c-1.85,0.66-3.78,1-5.77,0.91c-0.28,0-0.57-0.02-0.85-0.05c-0.7-0.06-1.41-0.18-2.12-0.36c-1.39-0.35-2.67-0.87-3.83-1.54
				c-0.25-0.13-0.5-0.28-0.74-0.44c-1.41-0.9-2.65-2.01-3.74-3.24c-0.19-0.21-0.38-0.43-0.56-0.65c-1.07-1.31-1.98-2.72-2.75-4.15
				c-0.14-0.25-0.28-0.51-0.4-0.77c-2.7-5.34-3.49-10.57-3.49-10.57l5.28-0.3c0,0,1.03,3.47,3.02,7.08c0.13,0.25,0.27,0.5,0.42,0.75
				c0.62,1.05,1.31,2.09,2.09,3.04c0.18,0.23,0.37,0.45,0.56,0.66c0.63,0.69,1.29,1.32,2.01,1.83c0.24,0.18,0.48,0.34,0.73,0.48
				c0.93,0.57,1.94,0.95,3.01,1.08c0.1,0.01,0.2,0.02,0.3,0.03c0.28,0.02,0.57,0.02,0.85,0.01c0.9-0.03,1.81-0.23,2.72-0.55
				c0.27-0.09,0.53-0.2,0.79-0.31c0.87-0.37,1.73-0.86,2.57-1.42c0.24-0.15,0.47-0.31,0.7-0.48c1.05-0.76,2.08-1.64,3.07-2.58
				c0.21-0.19,0.42-0.39,0.62-0.6c1.1-1.08,2.14-2.24,3.1-3.39c0.19-0.22,0.37-0.44,0.55-0.66c1.05-1.29,2-2.55,2.8-3.68
				c0.17-0.24,0.33-0.47,0.49-0.69c1.48-2.14,2.36-3.64,2.36-3.64H352.47z"/>
			<path style="fill:#407BFF;" d="M312.028,301.725l-4.939,2.731c0,0-3.946-8.096-2.39-15.216l8.801-2.2
				C313.5,287.041,314.733,293.363,312.028,301.725z"/>
			<path style="opacity:0.2;enable-background:new    ;" d="M348.17,303.85c-0.15,0.24-0.3,0.47-0.46,0.71l-6.59-3.87
				c0.17-0.24,0.33-0.47,0.49-0.69L348.17,303.85z"/>
			<path style="opacity:0.2;enable-background:new    ;" d="M344.63,308.83c-0.18,0.23-0.35,0.45-0.53,0.67l-6.33-4.47
				c0.19-0.22,0.37-0.44,0.55-0.66L344.63,308.83z"/>
			<path style="opacity:0.2;enable-background:new    ;" d="M340.47,313.58c-0.2,0.2-0.4,0.4-0.61,0.6l-5.81-5.16
				c0.21-0.19,0.42-0.39,0.62-0.6L340.47,313.58z"/>
			<path style="opacity:0.2;enable-background:new    ;" d="M335.58,317.74c-0.23,0.16-0.47,0.32-0.71,0.48l-4.59-6.14
				c0.24-0.15,0.47-0.31,0.7-0.48L335.58,317.74z"/>
			<path style="opacity:0.2;enable-background:new    ;" d="M330.98,320.27c-0.27,0.1-0.53,0.2-0.8,0.29l-3.26-6.75
				c0.27-0.09,0.53-0.2,0.79-0.31L330.98,320.27z"/>
			<path style="opacity:0.2;enable-background:new    ;" d="M324.41,321.47c-0.28,0-0.57-0.02-0.85-0.05l-0.21-7.07
				c0.28,0.02,0.57,0.02,0.85,0.01L324.41,321.47z"/>
			<path style="opacity:0.2;enable-background:new    ;" d="M320.04,313.24l-2.43,6.28c-0.25-0.13-0.5-0.28-0.74-0.44l2.44-6.32
				C319.55,312.94,319.79,313.1,320.04,313.24z"/>
			<path style="opacity:0.2;enable-background:new    ;" d="M317.3,310.93l-4.17,4.91c-0.19-0.21-0.38-0.43-0.56-0.65l4.17-4.92
				C316.92,310.5,317.11,310.72,317.3,310.93z"/>
			<path style="opacity:0.2;enable-background:new    ;" d="M314.65,307.23l-4.83,3.81c-0.14-0.25-0.28-0.51-0.4-0.77l4.81-3.79
				C314.36,306.73,314.5,306.98,314.65,307.23z"/>
		</g>
		<g>
			<path style="fill:#263238;" d="M328.23,295.634c0.091,0.803-0.494,1.454-1.307,1.454h-14.469c-0.813,0-1.547-0.651-1.638-1.454
				l-3.231-28.556c-0.091-0.803,0.494-1.652,1.307-1.652h14.469c0.813,0,1.547,0.849,1.638,1.652L328.23,295.634z"/>
			<path style="opacity:0.5;fill:#FFFFFF;" d="M323.395,266.89l3.274,28.833c0.092,0.813-0.331,1.365-1.138,1.365h-12.269
				c-0.823,0-2.331-0.453-2.424-1.266l-3.274-28.931c-0.093-0.813,1.312-1.464,2.135-1.464h12.269
				C322.776,265.426,323.302,266.077,323.395,266.89z"/>
		</g>
		<g>
			<ellipse style="fill:#263238;" cx="325.242" cy="386.42" rx="23.637" ry="30.31"/>
			<ellipse style="opacity:0.2;enable-background:new    ;" cx="330.899" cy="386.42" rx="16.618" ry="21.31"/>
		</g>
		<g>
			<path style="fill:#407BFF;" d="M415.24,370.77l-18.46,19.39l-59.02-2.7L324.4,372.9l8.25-19.01c0.48-1.11,1.57-1.82,2.77-1.82
				h14.83c0.84,0,1.64,0.35,2.21,0.96l0.89,0.95l4.12,4.41c0.57,0.62,1.37,0.96,2.21,0.96h11.42c0.58,0,1.14-0.16,1.63-0.47
				l9.91-6.34c0.48-0.31,1.05-0.47,1.62-0.47h20.34c1.18,0,2.24,0.68,2.74,1.74L415.24,370.77z"/>
			<path style="opacity:0.2;enable-background:new    ;" d="M376.791,372.967l9.926-16.704c0.55-0.926,1.548-1.494,2.625-1.494
				h14.316c1.231,0,2.342,0.739,2.817,1.875l6.053,14.468l-8.177,14.251l-21.229-0.791l-6.33-12.396"/>
			<path style="opacity:0.2;enable-background:new    ;" d="M382.64,352.54l-8.56,14.34c-0.61,1.02-1.71,1.65-2.9,1.65h-37.15
				c-1.49,0-2.5-1.51-1.93-2.89l4.2-10.07c0.41-0.96,1.35-1.59,2.39-1.59h14.66l4.12,4.41c0.57,0.62,1.37,0.96,2.21,0.96h11.42
				c0.58,0,1.14-0.16,1.63-0.47L382.64,352.54z"/>
		</g>
		<g>
			<g>
				<path style="fill:#263238;" d="M399.047,404.151h-61.769c-2.674,0-5.212-1.181-6.935-3.226l-10.311-12.243
					c-1.377-1.635-2.132-3.704-2.132-5.841v-8.431c0-2.013,1.632-3.646,3.646-3.646h77.501c2.013,0,3.646,1.632,3.646,3.646v26.095
					C402.692,402.519,401.06,404.151,399.047,404.151z"/>
				<path style="opacity:0.3;fill:#FFFFFF;" d="M402.69,374.41v26.1c0,2.01-1.63,3.64-3.64,3.64h-61.77c-2.68,0-5.21-1.18-6.94-3.22
					l-10.31-12.25c-1.38-1.63-2.13-3.7-2.13-5.84v-8.43c0-2.01,1.63-3.64,3.65-3.64h77.5C401.06,370.77,402.69,372.4,402.69,374.41z
					"/>
				<path style="opacity:0.2;enable-background:new    ;" d="M402.69,374.41v26.1c0,2.01-1.63,3.64-3.64,3.64h-8.77
					c-2.68,0-5.21-1.18-6.94-3.22l-10.31-12.25c-1.38-1.63-2.13-3.7-2.13-5.84v-8.43c0-2.01,1.63-3.64,3.65-3.64h24.5
					C401.06,370.77,402.69,372.4,402.69,374.41z"/>
			</g>
			<g>
				<g>
					<path style="fill:#263238;" d="M347.87,404.146l-9.442-12.34c-1.624-2.121-4.879-3.841-7.271-3.841
						c-0.73,0-1.284,0.168-1.67,0.45l-0.009-0.008l-0.933,0.694l0.014,0.003c-0.841,0.619-0.808,1.838,0.272,3.25l9.344,12.211
						c0.403,0.527,1.03,0.837,1.694,0.837h0.3h8.664h0.517c0.698,0,1.267-0.559,1.28-1.257l0,0H347.87z"/>
					<g>
						<path style="opacity:0.2;fill:#FFFFFF;" d="M330.167,388.668L330.167,388.668c-2.296,0-2.894,1.651-1.336,3.686l9.344,12.211
							c0.403,0.527,1.03,0.837,1.694,0.837h8.698h-0.54c-0.545,0-1.059-0.254-1.391-0.686l-9.491-12.362
							C335.587,390.319,332.463,388.668,330.167,388.668z"/>
					</g>
				</g>
				<g>
					<path style="fill:#263238;" d="M362.072,404.146l-9.442-12.34c-1.624-2.121-4.879-3.841-7.271-3.841
						c-0.73,0-1.284,0.168-1.67,0.45l-0.009-0.008l-0.933,0.694l0.014,0.003c-0.841,0.619-0.808,1.838,0.272,3.25l9.344,12.211
						c0.403,0.527,1.03,0.837,1.694,0.837h0.3h8.664h0.517c0.698,0,1.267-0.559,1.28-1.257l0,0H362.072z"/>
					<g>
						<path style="opacity:0.2;fill:#FFFFFF;" d="M344.369,388.668L344.369,388.668c-2.296,0-2.894,1.651-1.336,3.686l9.344,12.211
							c0.403,0.527,1.03,0.837,1.694,0.837h8.698h-0.54c-0.545,0-1.059-0.254-1.391-0.686l-9.491-12.362
							C349.788,390.319,346.664,388.668,344.369,388.668z"/>
					</g>
				</g>
				<g>
					<path style="fill:#263238;" d="M376.273,404.146l-9.442-12.34c-1.624-2.121-4.879-3.841-7.271-3.841
						c-0.73,0-1.284,0.168-1.67,0.45l-0.009-0.008l-0.933,0.694l0.014,0.003c-0.841,0.619-0.808,1.838,0.272,3.25l9.344,12.211
						c0.404,0.527,1.03,0.837,1.694,0.837h0.3h8.663h0.518c0.698,0,1.267-0.559,1.28-1.257l0,0H376.273z"/>
					<g>
						<path style="opacity:0.2;fill:#FFFFFF;" d="M358.57,388.668L358.57,388.668c-2.296,0-2.894,1.651-1.336,3.686l9.344,12.211
							c0.404,0.527,1.03,0.837,1.694,0.837h8.698h-0.54c-0.545,0-1.059-0.254-1.392-0.686l-9.491-12.362
							C363.99,390.319,360.866,388.668,358.57,388.668z"/>
					</g>
				</g>
			</g>
		</g>
		<g>
			<ellipse style="fill:#263238;" cx="411.242" cy="386.42" rx="23.637" ry="30.31"/>
			<ellipse style="fill:#407BFF;" cx="416.899" cy="386.42" rx="16.618" ry="21.31"/>
			<path style="opacity:0.2;enable-background:new    ;" d="M432.06,395.14c-2.59,7.42-8.4,12.59-15.16,12.59
				c-9.18,0-16.62-9.54-16.62-21.31c0-8.29,3.69-15.47,9.08-18.99c-0.94,2.66-1.46,5.62-1.46,8.73c0,11.76,7.44,21.31,16.62,21.31
				C427.24,397.47,429.8,396.63,432.06,395.14z"/>
		</g>
		<g>
			<path style="fill:#263238;" d="M349.923,339.736v20.637c0,1.056,0.856,1.912,1.912,1.912h21.876c0.555,0,1.083-0.241,1.446-0.662
				l7.212-8.342c0.666-0.77,1.633-1.212,2.651-1.212h2.915v-12.334H349.923z"/>
			<path style="opacity:0.3;fill:#FFFFFF;" d="M387.94,339.74v12.33h-2.92c-0.71,0-1.39,0.21-1.97,0.61
				c-0.25,0.16-0.48,0.37-0.68,0.6l-2.42,2.8l-0.74,0.85l-2.93,3.4l-0.75,0.86l-0.37,0.43c-0.37,0.42-0.89,0.67-1.45,0.67h-21.87
				c-0.77,0-1.43-0.45-1.74-1.1c-0.11-0.25-0.18-0.53-0.18-0.82v-20.63H387.94z"/>
			<rect x="349.92" y="343.32" style="opacity:0.2;enable-background:new    ;" width="38.02" height="0.86"/>
			<rect x="349.92" y="347.57" style="opacity:0.2;enable-background:new    ;" width="38.02" height="0.86"/>
			<path style="opacity:0.2;enable-background:new    ;" d="M387.94,351.83v0.24h-2.92c-0.71,0-1.39,0.21-1.97,0.61h-33.13v-0.85
				H387.94z"/>
			<polygon style="opacity:0.2;enable-background:new    ;" points="379.95,356.08 379.21,356.93 349.92,356.93 349.92,356.08 			
				"/>
			<path style="opacity:0.2;enable-background:new    ;" d="M376.28,360.33l-0.75,0.86H350.1c-0.11-0.25-0.18-0.53-0.18-0.82v-0.04
				H376.28z"/>
			<path style="opacity:0.2;enable-background:new    ;" d="M387.94,339.74v4.57c-5.95,1.5-23.22,5.55-38.02,6.02v-10.59H387.94z"/>
		</g>
		<g>
			<rect x="354.31" y="276.91" style="fill:#263238;" width="29.07" height="16.075"/>
			<rect x="354.31" y="276.91" style="opacity:0.3;fill:#FFFFFF;" width="29.07" height="16.075"/>
			<rect x="354.31" y="282.467" style="opacity:0.2;enable-background:new    ;" width="29.07" height="0.799"/>
			<rect x="354.31" y="285.976" style="opacity:0.2;enable-background:new    ;" width="29.07" height="0.799"/>
			<rect x="354.31" y="289.476" style="opacity:0.2;enable-background:new    ;" width="29.07" height="0.799"/>
			<path style="opacity:0.2;enable-background:new    ;" d="M383.38,276.91v4.081c-7.4,2.654-19.64,6.404-29.07,6.065V276.91H383.38
				z"/>
		</g>
		<g>
			<path style="fill:#407BFF;" d="M395.412,231.115h-20h-21.857h-9c-6.139,0-11.115,4.976-11.115,11.115v28.485
				c0,6.139,4.977,11.115,11.115,11.115h9h21.857h20c6.139,0,11.116-4.977,11.116-11.115V242.23
				C406.527,236.091,401.551,231.115,395.412,231.115z"/>
			<path style="opacity:0.2;enable-background:new    ;" d="M406.53,242.228v28.49c0,6.14-4.98,11.11-11.12,11.11h-20
				c6.14,0,11.12-4.97,11.12-11.11v-28.49c0-6.14-4.98-11.11-11.12-11.11h20C401.549,231.118,406.53,236.088,406.53,242.228z"/>
			<path style="fill:#263238;" d="M374.804,276.922h-30.242c-3.756,0-6.801-3.045-6.801-6.801v-27.297c0-3.756,3.045-6.8,6.801-6.8
				h30.242c3.756,0,6.8,3.045,6.8,6.8v27.297C381.604,273.877,378.56,276.922,374.804,276.922z"/>
			<line style="fill:none;stroke:#263238;stroke-miterlimit:10;" x1="400.034" y1="250.161" x2="400.034" y2="217.041"/>
			<g>
				<path style="fill:#407BFF;" d="M409.1,256.47c0,1.83-0.38,3.54-1.05,5.05c-0.5,1.16-1.18,2.19-1.99,3.05
					c-1.6,1.72-3.71,2.75-6.03,2.75c-5,0-9.06-4.85-9.06-10.85c0-5.99,4.06-10.85,9.06-10.85c2.33,0,4.44,1.05,6.06,2.77
					c0.8,0.86,1.47,1.89,1.97,3.05C408.72,252.94,409.1,254.66,409.1,256.47z"/>
				<g style="opacity:0.4;">
					<path d="M403.17,264.26c-3.55,0-6.43-3.49-6.43-7.79c0-4.29,2.88-7.78,6.43-7.78c1.96,0,3.72,1.07,4.89,2.75
						c-0.5-1.16-1.17-2.19-1.97-3.05c-0.9-0.45-1.88-0.7-2.92-0.7c-4.1,0-7.43,3.94-7.43,8.78c0,4.85,3.33,8.79,7.43,8.79
						c1.03,0,2-0.24,2.89-0.69c0.81-0.86,1.49-1.89,1.99-3.05C406.88,263.2,405.13,264.26,403.17,264.26z"/>
				</g>
			</g>
			<path style="fill:#FFFFFF;" d="M369.983,250.182c0,1.757-0.786,3.182-1.755,3.182c-0.969,0-1.755-1.425-1.755-3.182
				c0-1.757,0.786-3.182,1.755-3.182C369.198,247,369.983,248.425,369.983,250.182z"/>
			<path style="fill:#FFFFFF;" d="M351.019,250.161c0,1.757-0.786,3.182-1.755,3.182c-0.97,0-1.755-1.425-1.755-3.182
				c0-1.757,0.786-3.182,1.755-3.182C350.233,246.979,351.019,248.404,351.019,250.161z"/>
			<g>
				<path style="opacity:0.4;fill:#FFFFFF;" d="M358.648,264.933c2.01,1.943,4.813,5.958,4.813,5.958
					c0.41-0.189,0.82-0.377,1.218-0.586c5.491-2.694,7.148-5.759,7.319-8.338c0.088-1.411-0.286-2.686-0.719-3.664
					c-0.489-1.136-1.096-1.833-1.096-1.833c-2.057,3.167-6.983,6.073-9.678,7.515C359.383,264.601,358.648,264.933,358.648,264.933z
					"/>
				<path style="fill:#FFFFFF;" d="M360.506,263.985l1.464,1.72c5.165-2.551,8.46-5.039,9.309-7.402
					c-0.489-1.136-1.096-1.833-1.096-1.833C368.126,259.637,363.201,262.543,360.506,263.985z"/>
				<path style="fill:#407BFF;" d="M364.679,270.305c5.491-2.694,7.148-5.759,7.319-8.338c-1.836,0.99-3.939,2.388-5.504,4.2
					C365.293,267.548,364.823,268.998,364.679,270.305z"/>
			</g>
		</g>
		<path style="fill:#407BFF;" d="M404.35,301.88v29.81c0,5.9-4.78,10.68-10.69,10.68H346.2c-5.9,0-10.68-4.78-10.68-10.68v-29.81
			c0-5.9,4.78-10.68,10.68-10.68h47.46C399.57,291.2,404.35,295.98,404.35,301.88z"/>
		<path style="opacity:0.2;enable-background:new    ;" d="M404.35,301.88v29.81c0,5.9-4.78,10.68-10.69,10.68h-5.46
			c-5.9,0-10.68-4.78-10.68-10.68v-29.81c0-5.9,4.78-10.68,10.68-10.68h5.46C399.57,291.2,404.35,295.98,404.35,301.88z"/>
		<polygon style="fill:#263238;" points="329.615,298.279 329.615,289.876 326.286,283.802 326.681,292.985 		"/>
		<path style="fill:#263238;" d="M304.692,288.985l1.088-1.785l1.78-0.925v-2.066l3.297-3.261l2.176,3.162l-1.088,0.856l-1.286-0.56
			l-0.245,1.469h1.66l1.618,4.735l-0.989,0.77l0.429,2.323l-2.473,1.575l-2.571-1l0.649-1.591
			C308.737,292.688,304.692,293.088,304.692,288.985z"/>
		<g>
			<g>
				<path style="fill:#263238;" d="M391.817,298.355L391.817,298.355c3.134,0,5.323,3.074,4.324,6.045
					c-2.657,7.903-10.444,20.608-32.986,20.608c-24.89,0-39.245-22.301-39.245-22.301l5.705-4.427c0,0,12.551,18.572,33.309,18.572
					c17.139,0,22.802-10.179,24.584-15.435C388.132,299.575,389.874,298.355,391.817,298.355z"/>
				<path style="opacity:0.3;fill:#FFFFFF;" d="M396.14,304.4c-0.33,0.98-0.74,2.03-1.25,3.12c-0.11,0.26-0.23,0.52-0.37,0.78
					c-0.78,1.57-1.76,3.21-3.01,4.82c-0.16,0.23-0.34,0.45-0.53,0.67c-1.53,1.87-3.42,3.69-5.77,5.29
					c-0.23,0.16-0.47,0.32-0.71,0.48c-1.98,1.27-4.25,2.39-6.87,3.28c-0.27,0.09-0.54,0.18-0.82,0.27c-2.3,0.72-4.86,1.26-7.7,1.58
					c-0.28,0.03-0.57,0.06-0.85,0.09c-1.61,0.15-3.31,0.23-5.1,0.23c-0.85,0-1.68-0.03-2.5-0.07c-0.29-0.02-0.58-0.04-0.86-0.07
					c-2.32-0.19-4.54-0.57-6.65-1.1c-0.28-0.07-0.56-0.14-0.84-0.21c-2.62-0.72-5.07-1.66-7.35-2.74c-0.26-0.13-0.51-0.25-0.76-0.38
					c-2.47-1.23-4.72-2.62-6.76-4.09c-0.24-0.16-0.47-0.33-0.7-0.5c-2.26-1.66-4.23-3.39-5.91-5.02c-0.21-0.21-0.41-0.4-0.61-0.6
					c-4.13-4.14-6.31-7.52-6.31-7.52l5.71-4.43c0,0,1.93,2.86,5.54,6.33c0.2,0.2,0.41,0.39,0.62,0.59c1.43,1.34,3.09,2.74,4.98,4.09
					c0.23,0.17,0.46,0.34,0.7,0.5c1.79,1.23,3.76,2.41,5.91,3.44c0.26,0.12,0.52,0.24,0.78,0.37c1.84,0.82,3.79,1.54,5.87,2.08
					c0.27,0.08,0.55,0.15,0.83,0.21c1.75,0.42,3.57,0.72,5.47,0.86c0.28,0.02,0.57,0.04,0.86,0.06c0.57,0.03,1.15,0.04,1.74,0.04
					c1.57,0,3.05-0.09,4.44-0.25c0.29-0.03,0.58-0.07,0.86-0.12c2.12-0.29,4.03-0.77,5.73-1.38c0.28-0.1,0.55-0.2,0.81-0.3
					c1.75-0.7,3.29-1.55,4.62-2.47c0.24-0.17,0.47-0.33,0.69-0.51c1.54-1.16,2.81-2.45,3.83-3.75c0.19-0.23,0.36-0.46,0.52-0.69
					c0.9-1.23,1.59-2.45,2.13-3.58c0.12-0.27,0.24-0.53,0.35-0.79c0.24-0.56,0.44-1.1,0.61-1.59c0.62-1.84,2.36-3.07,4.31-3.07
					C394.95,298.35,397.14,301.43,396.14,304.4z"/>
			</g>
			<path style="fill:#263238;" d="M324.838,286.774c0,0-5.575-3.704-6.069-3.509c-0.495,0.196-3.857,3.474-3.857,3.474l0.857,1.37
				l-1.945,2.165l0.593,0.925l-1.385,2.547l3.462,4.531h4.154L324.838,286.774z"/>
			<path style="fill:#407BFF;" d="M324.838,304.022l5.761-4.422c0,0-4.472-12.249-5.761-12.826
				c-1.289-0.577-9.069,6.149-9.069,7.204C315.769,295.033,321.908,302.33,324.838,304.022z"/>
			<path style="opacity:0.2;enable-background:new    ;" d="M394.89,307.52c-0.11,0.26-0.23,0.52-0.37,0.78l-7.97-4.5
				c0.12-0.27,0.24-0.53,0.35-0.79L394.89,307.52z"/>
			<path style="opacity:0.2;enable-background:new    ;" d="M391.51,313.12c-0.16,0.23-0.34,0.45-0.53,0.67l-7.08-5.72
				c0.19-0.23,0.36-0.46,0.52-0.69L391.51,313.12z"/>
			<path style="opacity:0.2;enable-background:new    ;" d="M385.21,319.08c-0.23,0.16-0.47,0.32-0.71,0.48l-5.12-7.23
				c0.24-0.17,0.47-0.33,0.69-0.51L385.21,319.08z"/>
			<path style="opacity:0.2;enable-background:new    ;" d="M377.63,322.84c-0.27,0.09-0.54,0.18-0.82,0.27l-2.86-8.01
				c0.28-0.1,0.55-0.2,0.81-0.3L377.63,322.84z"/>
			<path style="opacity:0.2;enable-background:new    ;" d="M369.11,324.69c-0.28,0.03-0.57,0.06-0.85,0.09l-0.9-8.18
				c0.29-0.03,0.58-0.07,0.86-0.12L369.11,324.69z"/>
			<path style="opacity:0.2;enable-background:new    ;" d="M361.18,316.81l-0.52,8.13c-0.29-0.02-0.58-0.04-0.86-0.07l0.52-8.12
				C360.6,316.77,360.89,316.79,361.18,316.81z"/>
			<path style="opacity:0.2;enable-background:new    ;" d="M354.85,315.89l-1.7,7.88c-0.28-0.07-0.56-0.14-0.84-0.21l1.71-7.88
				C354.29,315.76,354.57,315.83,354.85,315.89z"/>
			<path style="opacity:0.2;enable-background:new    ;" d="M348.15,313.6l-3.19,7.22c-0.26-0.13-0.51-0.25-0.76-0.38l3.17-7.21
				C347.63,313.35,347.89,313.47,348.15,313.6z"/>
			<path style="opacity:0.2;enable-background:new    ;" d="M341.46,309.79l-4.02,6.56c-0.24-0.16-0.47-0.33-0.7-0.5l4.02-6.56
				C340.99,309.46,341.22,309.63,341.46,309.79z"/>
			<path style="opacity:0.2;enable-background:new    ;" d="M335.78,305.2l-4.95,5.63c-0.21-0.21-0.41-0.4-0.61-0.6l4.94-5.62
				C335.36,304.81,335.57,305,335.78,305.2z"/>
		</g>
	</g>
</g>
</svg>
