<svg width="637" height="509" viewBox="0 0 637 509" fill="none" xmlns="http://www.w3.org/2000/svg">
<path d="M169.076 446.745C188.779 446.745 205.503 443.538 219.249 437.123C233.453 430.251 244.909 421.316 253.614 410.319C262.778 398.864 269.422 386.034 273.546 371.83C278.128 357.167 280.419 341.818 280.419 325.781V317.533H338.152V325.781C338.152 350.065 334.487 372.976 327.156 394.511C319.824 415.589 309.056 434.145 294.853 450.183C280.648 465.761 263.007 478.133 241.93 487.297C220.853 496.002 196.568 500.356 169.076 500.356C115.925 500.356 74.4576 483.631 44.6746 450.183C14.8915 416.733 0 367.936 0 303.788V196.569C0 134.252 14.8915 85.9126 44.6746 51.5476C74.4576 17.1825 115.925 0 169.076 0C196.568 0 220.853 4.58202 241.93 13.7461C263.007 22.4519 280.648 34.8233 294.853 50.8603C309.056 66.4392 319.824 84.9963 327.156 106.532C334.487 127.609 338.152 150.29 338.152 174.575V182.822L312.7 200.692C312.7 200.692 265.797 85.4501 312.7 176.194C359.602 266.938 301.357 207.216 272.859 129.212C268.735 114.55 262.09 101.721 252.927 90.7238C244.221 79.2687 232.995 70.3338 219.249 63.9191C205.503 57.046 188.779 53.6095 169.076 53.6095C131.962 53.6095 104.012 67.1265 85.2253 94.1603C66.8974 121.194 57.7333 156.704 57.7333 200.692V299.663C57.7333 346.858 66.8974 383.285 85.2253 408.944C104.012 434.145 131.962 446.745 169.076 446.745Z" fill="white"/>
<path d="M569.703 154.184C569.375 138.608 565.878 124.933 559.214 113.157C553.007 101.372 544.554 91.6967 533.853 84.1312C523.153 76.5657 510.888 70.8663 497.059 67.0331C483.228 63.2 468.754 61.4428 453.637 61.7616C440.352 62.0416 427.793 64.1396 415.96 68.0555C404.117 71.5133 393.453 76.5503 383.968 83.1665C374.942 89.773 367.781 97.9444 362.486 107.68C357.182 116.958 354.661 127.781 354.921 140.15L355.009 144.273C355.288 157.558 358.279 168.953 363.978 178.457C369.669 187.503 377.855 195.35 388.536 202C399.666 208.181 413.296 213.394 429.425 217.636C445.546 221.422 464.406 224.691 486.003 227.443C536.558 234.168 573.978 248.275 598.263 269.76C622.538 290.789 635.062 319.627 635.834 356.275L636.008 364.521C636.443 385.136 633.18 404.224 626.217 421.786C619.702 438.88 609.475 453.762 595.534 466.43C582.053 479.088 565.077 489.071 544.607 496.377C524.138 503.683 500.389 507.621 473.361 508.191C442.668 508.837 415.32 505.06 391.316 496.859C367.759 488.19 347.8 476.236 331.437 460.999C315.524 445.294 303.223 426.992 294.533 406.093C285.833 384.737 281.218 361.46 280.686 336.265L280.252 315.65L337.972 314.434L338.32 330.925C339.209 373.07 351.328 404.437 374.677 425.027C398.485 445.608 431.002 455.463 472.231 454.593C507.963 453.84 534.597 445.487 552.134 429.535C570.121 413.116 578.839 391.849 578.288 365.739L578.201 361.616C577.67 336.42 567.874 317.378 548.811 304.489C530.207 291.59 499.999 282.602 458.187 277.526C433.839 274.832 411.749 270.485 391.916 264.487C372.53 258.02 355.856 249.665 341.89 239.419C327.916 228.714 317.105 215.88 309.456 200.918C301.808 185.954 297.765 168.165 297.331 147.552L297.158 139.306C296.761 120.524 300.293 103.263 307.753 87.5232C315.212 71.7837 325.693 58.0427 339.194 46.3005C353.153 34.5487 369.69 25.4922 388.806 19.1314C408.369 12.3026 429.832 8.642 453.194 8.14944C480.222 7.57961 504.355 10.9664 525.591 18.3098C547.287 25.6436 565.603 35.7984 580.542 48.7741C595.471 61.2919 606.79 76.4064 614.496 94.1177C622.651 111.361 626.93 129.603 627.337 148.844L627.944 177.704L570.224 178.92L569.703 154.184Z" fill="white"/>
</svg>
